<?xml version="1.0" encoding="utf-8"?>
<!-- Generator: Adobe Illustrator 16.0.0, SVG Export Plug-In . SVG Version: 6.00 Build 0)  -->
<!DOCTYPE svg PUBLIC "-//W3C//DTD SVG 1.1//EN" "http://www.w3.org/Graphics/SVG/1.1/DTD/svg11.dtd">
<svg version="1.1" id="レイヤー_1" xmlns="http://www.w3.org/2000/svg" xmlns:xlink="http://www.w3.org/1999/xlink" x="0px"
	 y="0px" width="113.645px" height="158.522px" viewBox="0 0 113.645 158.522" enable-background="new 0 0 113.645 158.522"
	 xml:space="preserve">
<g>
	<path fill="none" stroke="#040000" stroke-miterlimit="10" d="M107.145,49.326c-4.039,16.932-12.464,24.264-13.563,36.046
		c-1.799,19.275,11.562,34.506,18.237,55.906"/>
	<path fill="none" stroke="#040000" stroke-miterlimit="10" d="M38.226,156.392c3.254-2.923,7.689-6.715,13.379-14.544
		c7.8-10.733-3.082-34.984-10.548-32.597c-10.571,3.381-19.217,4.344-22.593,2.16c-5.361-3.467-2.976-9.848-3.213-10.896
		c-0.876-3.853-7.36-0.782-3.154-8.487c-2.629-0.782-5.316-2.287-4.615-4.273c0.298-0.846,3.33-5.659-0.292-6.32
		c-3.824-0.699-5.685-2.321-5.329-5.672c0.467-4.394,7.782-11.363,7.899-20.393c0.022-1.702-1.402-6.501-2.07-8.551
		c-2.263-6.936-1.336-19.614,3.397-26.429c2.012-2.895,7.454-11.242,16.499-18.397"/>
</g>
</svg>
