<?xml version="1.0" encoding="utf-8"?>
<!-- Generator: Adobe Illustrator 16.0.0, SVG Export Plug-In . SVG Version: 6.00 Build 0)  -->
<!DOCTYPE svg PUBLIC "-//W3C//DTD SVG 1.1//EN" "http://www.w3.org/Graphics/SVG/1.1/DTD/svg11.dtd">
<svg version="1.1" id="レイヤー_1" xmlns="http://www.w3.org/2000/svg" xmlns:xlink="http://www.w3.org/1999/xlink" x="0px"
	 y="0px" width="265px" height="76px" viewBox="0 0 265 76" enable-background="new 0 0 265 76" xml:space="preserve">
<g id="ci_x5F_logo_x5F_最新_x5F_ol">
	<g>
		<path fill="#202B47" d="M72.783,25.835h3.37c0.991,2.666,1.993,5.237,3.007,7.715c1.013,2.479,2.169,5.028,3.469,7.648h0.132
			l8.26-15.363h2.941c0.286,2.71,0.562,5.259,0.826,7.649c0.264,2.39,0.545,4.725,0.843,7.004c0.297,2.279,0.611,4.619,0.941,7.021
			c-0.154-0.044-0.391-0.071-0.71-0.082c-0.319-0.012-0.639-0.017-0.958-0.017c-0.319,0-0.567,0-0.743,0c-0.155,0-0.408,0-0.76,0
			c-0.353,0-0.699,0.005-1.041,0.017c-0.342,0.011-0.601,0.038-0.776,0.082c-0.221-2.753-0.452-5.396-0.694-7.929
			c-0.243-2.533-0.518-5.1-0.826-7.698h-0.099c-1.388,2.533-2.742,5.066-4.064,7.599c-1.321,2.533-2.588,5.178-3.799,7.931h-2.115
			c-0.881-2.468-1.845-5.006-2.891-7.615c-1.046-2.61-2.175-5.237-3.386-7.881l-0.099-0.032c-0.221,1.277-0.43,2.643-0.628,4.097
			c-0.198,1.454-0.38,2.896-0.545,4.329c-0.166,1.432-0.309,2.771-0.43,4.015c-0.121,1.243-0.193,2.308-0.215,3.188
			c-0.176-0.044-0.485-0.071-0.925-0.082c-0.441-0.012-0.75-0.017-0.925-0.017c-0.198,0-0.458,0.005-0.776,0.017
			c-0.32,0.011-0.567,0.038-0.744,0.082c0.463-2.114,0.958-4.394,1.487-6.839c0.529-2.444,1.041-4.939,1.537-7.483
			C71.943,30.645,72.387,28.192,72.783,25.835z"/>
		<path fill="#202B47" d="M99.248,40.637c0-1.718,0.341-3.148,1.024-4.295c0.683-1.145,1.635-2.004,2.858-2.577
			c1.223-0.572,2.615-0.859,4.18-0.859c1.872,0,3.386,0.331,4.543,0.991c1.156,0.661,2.01,1.554,2.561,2.677
			c0.55,1.123,0.826,2.379,0.826,3.767c0,2.291-0.699,4.097-2.098,5.418c-1.399,1.322-3.365,1.982-5.898,1.982
			c-2.467,0-4.417-0.634-5.848-1.899C99.963,44.574,99.248,42.84,99.248,40.637z M107.078,34.558c-0.947,0-1.641,0.243-2.082,0.727
			c-0.441,0.485-0.727,1.13-0.859,1.934c-0.132,0.804-0.198,1.69-0.198,2.659c0,0.64,0.038,1.315,0.116,2.032
			c0.077,0.716,0.236,1.394,0.479,2.031c0.242,0.64,0.616,1.156,1.123,1.554c0.507,0.397,1.189,0.595,2.049,0.595
			c0.506,0,0.975-0.144,1.404-0.43c0.43-0.286,0.776-0.781,1.041-1.487c0.264-0.704,0.396-1.685,0.396-2.94
			c0-2.289-0.226-3.976-0.677-5.055C109.418,35.098,108.487,34.558,107.078,34.558z"/>
		<path fill="#202B47" d="M119.567,33.236c0-0.661,0.011-1.272,0.033-1.834c0.021-0.562,0.055-1.062,0.099-1.503l0.066-0.1
			c0.44-0.109,0.914-0.259,1.42-0.446c0.507-0.187,0.986-0.38,1.438-0.578c0.451-0.198,0.81-0.352,1.074-0.462
			c0.198,0,0.297,0.11,0.297,0.33c-0.066,0.881-0.11,1.636-0.132,2.264c-0.022,0.627-0.033,1.403-0.033,2.329h1.553
			c0.374,0,0.776-0.011,1.206-0.033c0.429-0.021,0.798-0.044,1.107-0.066l0.165,0.265c-0.221,0.528-0.353,1.047-0.396,1.553
			c-0.221-0.021-0.573-0.038-1.057-0.05c-0.485-0.011-0.925-0.018-1.322-0.018h-1.255l-0.066,3.536
			c-0.022,0.991-0.033,1.889-0.033,2.692c0,0.803,0,1.459,0,1.966c0,0.684,0.093,1.294,0.281,1.834
			c0.187,0.54,0.5,0.811,0.941,0.811c0.44,0,0.782-0.022,1.024-0.066c0.242-0.044,0.54-0.154,0.892-0.33
			c0.374,0.242,0.562,0.66,0.562,1.255c-0.705,0.419-1.476,0.716-2.312,0.894c-0.837,0.176-1.685,0.264-2.544,0.264
			c-0.705,0-1.294-0.165-1.768-0.495s-0.832-0.743-1.074-1.239c-0.243-0.494-0.363-0.996-0.363-1.503
			c0-0.331,0.005-0.819,0.017-1.471c0.011-0.649,0.021-1.354,0.033-2.114c0.012-0.76,0.027-1.471,0.05-2.131l0.099-3.899
			c-0.375,0-0.788,0.006-1.239,0.017c-0.452,0.012-0.821,0.028-1.106,0.05l-0.166-0.231c0.154-0.242,0.292-0.495,0.413-0.76
			c0.121-0.265,0.226-0.539,0.314-0.826C118.267,33.203,118.862,33.236,119.567,33.236z"/>
		<path fill="#202B47" d="M131.263,39.646c0-1.233-0.022-2.429-0.066-3.585c-0.044-1.156-0.132-2.086-0.265-2.791l0.099-0.133
			c0.286,0.022,0.645,0.045,1.074,0.066c0.43,0.022,0.854,0.033,1.272,0.033c0.463,0,0.903-0.021,1.322-0.066
			c0.418-0.044,0.738-0.077,0.958-0.099c0.198,0,0.297,0.11,0.297,0.33c-0.11,0.991-0.192,1.911-0.248,2.759
			c-0.056,0.849-0.083,1.889-0.083,3.122v2.181c0,1.256,0.021,2.324,0.066,3.205c0.043,0.881,0.131,1.795,0.264,2.742l-0.066,0.099
			c-0.309-0.044-0.65-0.071-1.023-0.082c-0.375-0.012-0.848-0.017-1.42-0.017c-0.573,0-1.036,0.005-1.388,0.017
			c-0.353,0.011-0.705,0.038-1.057,0.082l-0.066-0.099c0.132-0.903,0.22-1.812,0.265-2.727c0.043-0.914,0.066-1.986,0.066-3.222
			V39.646z M131.098,27.355c0-0.639,0.226-1.179,0.677-1.619c0.451-0.44,1.007-0.661,1.668-0.661c0.66,0,1.217,0.221,1.668,0.661
			s0.677,0.98,0.677,1.619c0,0.616-0.226,1.15-0.677,1.602c-0.452,0.452-1.008,0.678-1.668,0.678c-0.661,0-1.217-0.226-1.668-0.678
			C131.323,28.506,131.098,27.972,131.098,27.355z"/>
		<path fill="#202B47" d="M139.952,40.637c0-1.718,0.341-3.148,1.024-4.295c0.683-1.145,1.635-2.004,2.857-2.577
			c1.223-0.572,2.615-0.859,4.18-0.859c1.872,0,3.387,0.331,4.543,0.991c1.156,0.661,2.01,1.554,2.562,2.677
			c0.55,1.123,0.825,2.379,0.825,3.767c0,2.291-0.698,4.097-2.098,5.418c-1.398,1.322-3.365,1.982-5.897,1.982
			c-2.468,0-4.417-0.634-5.849-1.899C140.667,44.574,139.952,42.84,139.952,40.637z M147.782,34.558
			c-0.947,0-1.642,0.243-2.082,0.727c-0.441,0.485-0.728,1.13-0.859,1.934c-0.132,0.804-0.198,1.69-0.198,2.659
			c0,0.64,0.039,1.315,0.116,2.032c0.077,0.716,0.236,1.394,0.479,2.031c0.242,0.64,0.615,1.156,1.123,1.554
			c0.507,0.397,1.188,0.595,2.049,0.595c0.506,0,0.975-0.144,1.404-0.43s0.775-0.781,1.041-1.487
			c0.264-0.704,0.396-1.685,0.396-2.94c0-2.289-0.226-3.976-0.677-5.055C150.123,35.098,149.191,34.558,147.782,34.558z"/>
		<path fill="#202B47" d="M173.646,41.463c0,1.256,0.022,2.324,0.065,3.205c0.045,0.881,0.144,1.795,0.297,2.742l-0.063,0.099
			c-0.551-0.044-1.025-0.071-1.422-0.082c-0.396-0.012-0.781-0.017-1.156-0.017c-0.572,0-1.311,0.033-2.213,0.099l-0.066-0.099
			c0.109-0.881,0.17-1.784,0.182-2.709c0.013-0.926,0.017-2.004,0.017-3.238v-2.939c0-1.211-0.177-2.026-0.527-2.445
			c-0.354-0.418-0.75-0.627-1.188-0.627c-0.596,0-1.223,0.23-1.885,0.693c-0.66,0.463-1.311,1.112-1.949,1.949v3.37
			c0,1.256,0.012,2.324,0.033,3.205s0.078,1.795,0.166,2.742l-0.1,0.099c-0.793-0.065-1.477-0.099-2.048-0.099
			c-0.375,0-0.776,0.005-1.206,0.017c-0.43,0.011-0.932,0.038-1.503,0.082l-0.065-0.099c0.131-0.881,0.226-1.784,0.28-2.709
			c0.056-0.926,0.083-2.004,0.083-3.238v-1.816c0-1.233-0.027-2.435-0.083-3.602c-0.055-1.168-0.147-2.104-0.28-2.809l0.065-0.1
			c0.396,0.022,0.864,0.033,1.403,0.033c0.541,0,1.074-0.011,1.604-0.033c0.528-0.021,0.947-0.055,1.255-0.099
			c0.154,0,0.253,0.11,0.298,0.33c0.021,0.132,0.043,0.474,0.065,1.024c0.022,0.55,0.032,1.014,0.032,1.388l0.133,0.099
			c0.771-0.969,1.619-1.706,2.544-2.213c0.924-0.507,1.805-0.761,2.644-0.761c1.498,0,2.637,0.381,3.42,1.141
			c0.78,0.76,1.172,2.01,1.172,3.75v3.668H173.646z"/>
		<path fill="#202B47" d="M184.913,46.021c0.991,0,1.751-0.274,2.278-0.825c0.528-0.55,0.793-1.409,0.793-2.577
			c0-0.684-0.285-1.332-0.858-1.949c-0.571-0.616-1.244-1.123-2.015-1.52c-0.947-0.484-1.988-1.059-3.123-1.718
			c-1.135-0.661-2.088-1.487-2.857-2.479c-0.396-0.506-0.667-1.068-0.81-1.685c-0.145-0.617-0.216-1.244-0.216-1.884
			c0-1.167,0.336-2.181,1.009-3.039c0.672-0.859,1.553-1.521,2.644-1.981c1.09-0.463,2.252-0.694,3.485-0.694
			c1.343,0,2.521,0.127,3.534,0.38c1.014,0.254,2.082,0.623,3.205,1.107l0.066,0.099c-0.154,0.484-0.287,1.118-0.396,1.899
			c-0.11,0.782-0.197,1.471-0.264,2.064l-0.992,0.033c-0.287-0.551-0.678-1.129-1.172-1.734c-0.496-0.605-1.059-1.129-1.687-1.569
			c-0.627-0.44-1.271-0.661-1.933-0.661c-0.903,0-1.631,0.325-2.182,0.975c-0.551,0.65-0.826,1.395-0.826,2.23
			c0,0.814,0.154,1.47,0.463,1.966c0.31,0.495,0.723,0.897,1.239,1.206s1.073,0.605,1.668,0.892
			c0.661,0.309,1.371,0.667,2.132,1.074c0.76,0.407,1.476,0.875,2.147,1.404c0.671,0.528,1.217,1.14,1.635,1.833
			c0.419,0.694,0.628,1.493,0.628,2.396c0,1.123-0.318,2.182-0.958,3.172c-0.639,0.991-1.548,1.791-2.726,2.396
			c-1.18,0.605-2.583,0.908-4.213,0.908c-1.344,0-2.551-0.121-3.618-0.363c-1.068-0.242-2.229-0.616-3.485-1.123l-0.066-0.1
			c0.134-0.506,0.26-1.156,0.382-1.949c0.12-0.793,0.214-1.486,0.28-2.081l0.858-0.033c0.396,0.573,0.931,1.168,1.603,1.784
			c0.672,0.617,1.398,1.129,2.182,1.536C183.53,45.818,184.252,46.021,184.913,46.021z"/>
		<path fill="#202B47" d="M193.732,33.137c0.152,0.022,0.435,0.045,0.842,0.066c0.406,0.022,0.82,0.033,1.238,0.033s0.694,0,0.826,0
			c0.242,0,0.596-0.005,1.059-0.017c0.462-0.011,0.804-0.038,1.022-0.083c0.552,1.696,1.146,3.387,1.784,5.072
			c0.639,1.685,1.344,3.375,2.115,5.071l0.297,0.033c0.705-1.586,1.382-3.267,2.032-5.04c0.649-1.772,1.239-3.485,1.768-5.138
			c0.109,0.022,0.298,0.045,0.562,0.066c0.266,0.022,0.523,0.033,0.776,0.033s0.436,0,0.546,0c0.176,0,0.45-0.005,0.825-0.017
			c0.374-0.011,0.64-0.038,0.793-0.083c-0.153,0.309-0.424,0.871-0.81,1.687c-0.387,0.814-0.854,1.795-1.404,2.939
			c-0.55,1.146-1.135,2.379-1.751,3.7s-1.239,2.665-1.866,4.031c-0.628,1.364-1.218,2.681-1.768,3.948
			c-0.551,1.266-1.03,2.399-1.438,3.401c-0.408,1.003-0.699,1.802-0.877,2.396c-0.154-0.044-0.418-0.082-0.793-0.115
			c-0.374-0.033-0.648-0.05-0.824-0.05c-0.111,0-0.314,0.005-0.611,0.017c-0.299,0.011-0.596,0.027-0.893,0.05
			c-0.298,0.021-0.502,0.055-0.611,0.1c0.748-1.233,1.471-2.483,2.164-3.75c0.693-1.268,1.306-2.518,1.834-3.75l-0.396-0.627
			c-0.242-0.661-0.572-1.465-0.99-2.412c-0.42-0.947-0.882-1.967-1.389-3.057c-0.507-1.091-1.014-2.176-1.52-3.255
			c-0.508-1.079-0.986-2.076-1.438-2.99C194.387,34.486,194.02,33.731,193.732,33.137z"/>
		<path fill="#202B47" d="M227.511,41.463c0,1.256,0.022,2.324,0.066,3.205s0.143,1.795,0.297,2.742l-0.065,0.099
			c-0.551-0.044-1.023-0.071-1.42-0.082c-0.396-0.012-0.783-0.017-1.156-0.017c-0.573,0-1.312,0.033-2.215,0.099l-0.065-0.099
			c0.11-0.881,0.171-1.784,0.182-2.709c0.013-0.926,0.017-2.004,0.017-3.238v-2.939c0-1.211-0.176-2.026-0.527-2.445
			c-0.354-0.418-0.749-0.627-1.189-0.627c-0.595,0-1.223,0.23-1.883,0.693s-1.312,1.112-1.949,1.949v3.37
			c0,1.256,0.012,2.324,0.032,3.205c0.022,0.881,0.077,1.795,0.166,2.742l-0.1,0.099c-0.793-0.065-1.476-0.099-2.05-0.099
			c-0.373,0-0.775,0.005-1.205,0.017c-0.43,0.011-0.932,0.038-1.504,0.082l-0.065-0.099c0.133-0.881,0.226-1.784,0.281-2.709
			c0.055-0.926,0.083-2.004,0.083-3.238v-1.816c0-1.233-0.028-2.435-0.083-3.602c-0.056-1.168-0.148-2.104-0.281-2.809l0.065-0.1
			c0.396,0.022,0.865,0.033,1.404,0.033s1.074-0.011,1.604-0.033c0.527-0.021,0.945-0.055,1.256-0.099
			c0.152,0,0.253,0.11,0.297,0.33c0.021,0.132,0.044,0.474,0.066,1.024c0.021,0.551,0.033,1.014,0.033,1.388l0.131,0.099
			c0.771-0.969,1.619-1.706,2.545-2.213c0.925-0.507,1.806-0.761,2.644-0.761c1.497,0,2.638,0.381,3.419,1.141
			c0.782,0.76,1.174,2.01,1.174,3.75v3.668H227.511z"/>
		<path fill="#202B47" d="M239.096,34.558c-0.572,0-1.123,0.138-1.65,0.413c-0.529,0.275-0.959,0.666-1.289,1.173
			c-0.528,0.859-0.793,2.104-0.793,3.733c0,0.947,0.094,1.801,0.281,2.561c0.187,0.761,0.424,1.384,0.709,1.867
			c0.31,0.484,0.744,0.903,1.307,1.256s1.084,0.528,1.568,0.528c0.66,0,1.354-0.127,2.082-0.38c0.727-0.253,1.32-0.655,1.783-1.206
			l0.528,0.165c0,0.266,0.017,0.507,0.05,0.727c0.033,0.222,0.071,0.408,0.116,0.562c-0.75,0.617-1.531,1.068-2.347,1.355
			c-0.814,0.285-1.851,0.429-3.105,0.429c-1.232,0-2.374-0.192-3.42-0.578s-1.866-0.897-2.461-1.536
			c-0.551-0.616-0.986-1.327-1.305-2.131c-0.32-0.805-0.479-1.725-0.479-2.759c0-1.74,0.368-3.188,1.106-4.345
			c0.738-1.157,1.724-2.026,2.957-2.61c1.232-0.583,2.588-0.876,4.063-0.876c0.55,0,1.14,0.056,1.769,0.166
			c0.627,0.11,1.228,0.247,1.801,0.413c0.572,0.165,1.023,0.336,1.354,0.512l0.066,0.099l-0.793,3.205l-0.926,0.033
			C241.32,35.482,240.33,34.558,239.096,34.558z"/>
	</g>
	
		<linearGradient id="SVGID_1_" gradientUnits="userSpaceOnUse" x1="-325.1533" y1="618.5801" x2="-278.4834" y2="618.5801" gradientTransform="matrix(1 0 0 -1 342.5 656)">
		<stop  offset="0" style="stop-color:#202B47"/>
		<stop  offset="1" style="stop-color:#202B47;stop-opacity:0.1"/>
	</linearGradient>
	<path fill="url(#SVGID_1_)" d="M45.614,15.587c-1.631-0.353-3.298-0.532-4.955-0.532c-10.894,0-20.475,7.738-22.782,18.399
		c-2.391,11.047,3.511,21.992,13.508,26.33l2.913-6.376c-7.071-3-11.263-10.697-9.58-18.474c1.614-7.463,8.318-12.88,15.94-12.88
		c1.16,0,2.328,0.126,3.475,0.374c4.263,0.921,7.911,3.448,10.273,7.115c2.362,3.666,3.155,8.033,2.233,12.296
		c-0.37,1.71-1.019,3.306-1.873,4.761l6.132,3.356c1.173-2.035,2.067-4.258,2.583-6.638c1.318-6.09,0.185-12.328-3.19-17.567
		S51.704,16.903,45.614,15.587z"/>
	<g>
		<path fill="#202B47" d="M38.915,55.484c0.154,0.014,0.337,0.026,0.55,0.037c0.212,0.012,0.399,0.018,0.561,0.018
			c0.125,0,0.326,0,0.605,0c0.279,0,0.607,0,0.984,0c0.378,0,0.777,0,1.199,0c0.421,0,0.839,0,1.254,0c0.414,0,0.805,0,1.171,0
			c0.366,0,0.68,0,0.94,0c0.26,0,0.442,0,0.544,0c0.081,0,0.18-0.002,0.297-0.006s0.238-0.01,0.363-0.018
			c0.125-0.007,0.231-0.015,0.319-0.021l0.011,1.123c-0.139-0.016-0.304-0.022-0.495-0.022c-0.19,0-0.348,0-0.473,0
			c-0.11,0-0.295,0-0.556,0c-0.261,0-0.576,0-0.946,0c-0.37,0-0.764,0-1.182,0s-0.84,0-1.265,0c-0.425,0-0.823,0-1.193,0
			c-0.371,0-0.695,0-0.974,0c-0.279,0-0.48,0-0.605,0c-0.147,0-0.328,0.005-0.544,0.011c-0.216,0.009-0.405,0.02-0.566,0.033
			L38.915,55.484L38.915,55.484z M39.64,52.35c0.154,0.006,0.315,0.017,0.484,0.027c0.168,0.01,0.348,0.016,0.539,0.016
			c0.146,0,0.354,0,0.621,0c0.267,0,0.574,0,0.918,0c0.344,0,0.704,0,1.078,0c0.374,0,0.735,0,1.083,0c0.348,0,0.658,0,0.93,0
			c0.271,0,0.48,0,0.627,0c0.183,0,0.355-0.004,0.517-0.011c0.161-0.007,0.304-0.019,0.429-0.032v1.101
			c-0.139-0.009-0.282-0.017-0.429-0.022c-0.147-0.007-0.319-0.011-0.517-0.011c-0.147,0-0.363,0-0.649,0s-0.612,0-0.979,0
			s-0.743,0-1.127,0c-0.385,0-0.75,0-1.095,0c-0.345,0-0.642,0-0.891,0s-0.421,0-0.517,0c-0.191,0-0.371,0.002-0.539,0.006
			c-0.169,0.004-0.33,0.013-0.484,0.027L39.64,52.35L39.64,52.35z M43.182,56.033c0,0.17,0,0.377,0,0.622s0,0.497,0,0.753
			c0,0.258,0,0.49,0,0.699s0,0.36,0,0.457c0,0.285,0.104,0.5,0.314,0.643c0.209,0.143,0.551,0.215,1.028,0.215
			c0.506,0,0.996-0.013,1.468-0.039c0.473-0.025,0.937-0.062,1.392-0.115l-0.066,1.179c-0.271,0.014-0.57,0.028-0.896,0.043
			c-0.326,0.016-0.667,0.026-1.023,0.038s-0.709,0.018-1.062,0.018c-0.602,0-1.073-0.064-1.414-0.197
			c-0.341-0.133-0.578-0.32-0.709-0.566c-0.131-0.246-0.198-0.533-0.198-0.863c0-0.191,0-0.412,0-0.666c0-0.253,0-0.518,0-0.791
			c0-0.275,0-0.539,0-0.793c0-0.253,0-0.479,0-0.676c0-0.088,0-0.229,0-0.424c0-0.195,0-0.412,0-0.654s0-0.484,0-0.727
			c0-0.244,0-0.459,0-0.648c0-0.191,0-0.326,0-0.407h1.166c0,0.088,0,0.233,0,0.435c0,0.203,0,0.434,0,0.693s0,0.52,0,0.775
			s0,0.477,0,0.66C43.182,55.876,43.182,55.99,43.182,56.033z"/>
		<path fill="#202B47" d="M49.76,55.374c0.125,0.007,0.277,0.017,0.457,0.026c0.18,0.011,0.374,0.021,0.583,0.027
			s0.409,0.012,0.6,0.012c0.146,0,0.348,0,0.605,0c0.256,0,0.548,0,0.875,0c0.326,0,0.669,0,1.028,0c0.359,0,0.717,0,1.073,0
			c0.355,0,0.691,0,1.006,0s0.594,0,0.836,0c0.242,0,0.429,0,0.561,0c0.264,0,0.502-0.01,0.715-0.027
			c0.213-0.018,0.385-0.031,0.517-0.038v1.364c-0.125-0.008-0.301-0.02-0.528-0.033c-0.228-0.016-0.462-0.021-0.704-0.021
			c-0.125,0-0.31,0-0.556,0s-0.526,0-0.841,0s-0.651,0-1.006,0c-0.356,0-0.713,0-1.073,0c-0.36,0-0.702,0-1.028,0
			c-0.327,0-0.618,0-0.875,0c-0.257,0-0.458,0-0.605,0c-0.301,0-0.602,0.006-0.902,0.017c-0.301,0.012-0.546,0.022-0.737,0.039
			L49.76,55.374L49.76,55.374z"/>
		<path fill="#202B47" d="M61.365,54.208c0.176,0.088,0.378,0.2,0.605,0.335c0.228,0.137,0.458,0.277,0.693,0.424
			c0.234,0.146,0.455,0.284,0.66,0.412c0.206,0.129,0.374,0.24,0.506,0.336l-0.638,0.979c-0.147-0.102-0.323-0.223-0.528-0.362
			c-0.206-0.14-0.422-0.281-0.649-0.429c-0.227-0.146-0.453-0.284-0.676-0.412c-0.223-0.128-0.423-0.24-0.6-0.335L61.365,54.208z
			 M61.222,59.554c0.403-0.073,0.818-0.167,1.243-0.28c0.425-0.112,0.847-0.252,1.265-0.418c0.418-0.164,0.821-0.35,1.21-0.556
			c0.608-0.353,1.177-0.743,1.705-1.177s1.004-0.895,1.43-1.387c0.425-0.49,0.785-0.996,1.078-1.519l0.671,1.166
			c-0.499,0.748-1.116,1.464-1.854,2.146c-0.737,0.683-1.553,1.279-2.447,1.793c-0.374,0.213-0.779,0.41-1.216,0.595
			c-0.436,0.183-0.869,0.343-1.298,0.479c-0.429,0.136-0.809,0.231-1.138,0.291L61.222,59.554z M63.038,51.711
			c0.176,0.096,0.374,0.215,0.594,0.357c0.22,0.142,0.447,0.289,0.682,0.438c0.234,0.15,0.457,0.294,0.666,0.431
			c0.209,0.136,0.375,0.25,0.5,0.346l-0.649,0.947c-0.14-0.104-0.312-0.226-0.517-0.363c-0.206-0.141-0.422-0.283-0.649-0.43
			c-0.228-0.146-0.451-0.287-0.671-0.425c-0.22-0.135-0.414-0.254-0.583-0.356L63.038,51.711z"/>
		<path fill="#202B47" d="M72.97,59.488c0.095,0.007,0.226,0.016,0.391,0.027c0.165,0.01,0.343,0.016,0.534,0.016
			c0.11,0,0.293,0,0.55,0c0.257,0,0.552,0,0.886,0c0.333,0,0.682,0,1.045,0c0.363,0,0.709,0,1.04,0c0.33,0,0.614,0,0.853,0
			c0.238,0,0.394,0,0.467,0v1.013c-0.095,0-0.264,0-0.506,0s-0.526,0-0.853,0s-0.669,0-1.029,0c-0.36,0-0.706,0-1.04,0
			c-0.333,0-0.625,0-0.874,0c-0.25,0-0.429,0-0.539,0c-0.162,0-0.332,0.003-0.512,0.011c-0.18,0.008-0.317,0.016-0.413,0.021V59.488
			z M73.091,54.164c0.081,0.008,0.198,0.015,0.352,0.021c0.154,0.008,0.312,0.014,0.473,0.017c0.161,0.004,0.297,0.006,0.407,0.006
			c0.146,0,0.356,0,0.627,0s0.576,0,0.913,0c0.337,0,0.677,0,1.018,0c0.341,0,0.656,0,0.946,0s0.526,0,0.709,0
			c0.132,0,0.271-0.002,0.418-0.006c0.146-0.003,0.256-0.005,0.33-0.005c-0.007,0.059-0.011,0.15-0.011,0.273
			c0,0.125,0,0.246,0,0.363c0,0.064,0,0.227,0,0.479c0,0.254,0,0.562,0,0.924c0,0.363,0,0.748,0,1.156c0,0.405,0,0.807,0,1.198
			s0,0.74,0,1.045c0,0.306,0,0.533,0,0.688c0,0.088,0.001,0.199,0.005,0.335c0.003,0.136,0.009,0.243,0.017,0.325h-1.1
			c0.007-0.074,0.011-0.181,0.011-0.32c0-0.139,0-0.268,0-0.385c0-0.189,0-0.438,0-0.742c0-0.305,0-0.639,0-1.001s0-0.729,0-1.101
			s0-0.713,0-1.027c0-0.315,0-0.582,0-0.799c0-0.215,0-0.354,0-0.412c-0.066,0-0.189,0-0.369,0c-0.18,0-0.396,0-0.649,0
			s-0.519,0-0.797,0c-0.279,0-0.552,0-0.82,0s-0.511,0-0.731,0c-0.22,0-0.393,0-0.517,0c-0.11,0-0.248,0.002-0.413,0.006
			s-0.323,0.008-0.473,0.012s-0.266,0.01-0.347,0.016L73.091,54.164L73.091,54.164z M73.355,56.771
			c0.125,0.006,0.288,0.014,0.489,0.021c0.201,0.007,0.398,0.011,0.589,0.011c0.095,0,0.258,0,0.489,0s0.499,0,0.803,0
			c0.304,0,0.62,0,0.946,0c0.326,0,0.636,0,0.93,0c0.293,0,0.542,0,0.748,0s0.334,0,0.385,0v0.99c-0.059,0-0.189,0-0.391,0
			c-0.202,0-0.449,0-0.742,0s-0.604,0-0.93,0c-0.326,0-0.642,0-0.946,0c-0.305,0-0.572,0-0.803,0s-0.391,0-0.479,0
			c-0.198,0-0.398,0-0.6,0c-0.202,0-0.365,0.007-0.489,0.021L73.355,56.771L73.355,56.771z"/>
		<path fill="#202B47" d="M83.124,59.443c0.616-0.096,1.184-0.221,1.705-0.379s1-0.338,1.436-0.539
			c0.437-0.201,0.831-0.408,1.183-0.621c0.587-0.359,1.127-0.773,1.623-1.244c0.495-0.469,0.93-0.953,1.304-1.451
			c0.374-0.499,0.671-0.982,0.891-1.452l0.671,1.198c-0.264,0.479-0.589,0.954-0.974,1.431c-0.385,0.479-0.819,0.933-1.304,1.37
			c-0.484,0.436-1.012,0.83-1.584,1.182c-0.367,0.229-0.768,0.447-1.205,0.66c-0.436,0.213-0.906,0.403-1.408,0.572
			c-0.502,0.168-1.036,0.305-1.601,0.406L83.124,59.443z M84.256,52.085c0.198,0.132,0.425,0.295,0.682,0.489
			c0.256,0.193,0.519,0.4,0.787,0.621s0.522,0.434,0.764,0.639c0.242,0.205,0.437,0.389,0.583,0.55l-0.869,0.892
			c-0.139-0.146-0.323-0.324-0.55-0.533c-0.228-0.209-0.471-0.426-0.731-0.649c-0.26-0.223-0.519-0.436-0.775-0.638
			c-0.257-0.202-0.488-0.372-0.693-0.512L84.256,52.085z"/>
		<path fill="#202B47" d="M94.365,54.208c0.176,0.088,0.378,0.2,0.605,0.335c0.228,0.137,0.458,0.277,0.693,0.424
			c0.234,0.146,0.455,0.284,0.66,0.412c0.206,0.129,0.374,0.24,0.506,0.336l-0.638,0.979c-0.147-0.102-0.323-0.223-0.528-0.362
			c-0.206-0.14-0.422-0.281-0.649-0.429c-0.227-0.146-0.453-0.284-0.676-0.412c-0.223-0.128-0.423-0.24-0.6-0.335L94.365,54.208z
			 M94.222,59.554c0.403-0.073,0.818-0.167,1.243-0.28c0.425-0.112,0.847-0.252,1.265-0.418c0.418-0.164,0.821-0.35,1.21-0.556
			c0.608-0.353,1.177-0.743,1.705-1.177s1.004-0.895,1.43-1.387c0.425-0.49,0.785-0.996,1.078-1.519l0.671,1.166
			c-0.499,0.748-1.116,1.464-1.854,2.146c-0.737,0.683-1.553,1.279-2.447,1.793c-0.374,0.213-0.779,0.41-1.216,0.595
			c-0.436,0.183-0.869,0.343-1.298,0.479c-0.429,0.136-0.809,0.231-1.138,0.291L94.222,59.554z M96.038,51.711
			c0.176,0.096,0.374,0.215,0.594,0.357c0.22,0.142,0.447,0.289,0.682,0.438c0.234,0.15,0.457,0.294,0.666,0.431
			c0.209,0.136,0.375,0.25,0.5,0.346l-0.649,0.947c-0.14-0.104-0.312-0.226-0.517-0.363c-0.206-0.141-0.422-0.283-0.649-0.43
			c-0.228-0.146-0.451-0.287-0.671-0.425c-0.22-0.135-0.414-0.254-0.583-0.356L96.038,51.711z"/>
		<path fill="#202B47" d="M105.124,59.443c0.616-0.096,1.184-0.221,1.705-0.379s1-0.338,1.436-0.539
			c0.437-0.201,0.831-0.408,1.183-0.621c0.587-0.359,1.127-0.773,1.623-1.244c0.495-0.469,0.93-0.953,1.304-1.451
			c0.374-0.499,0.671-0.982,0.891-1.452l0.671,1.198c-0.264,0.479-0.589,0.954-0.974,1.431c-0.385,0.479-0.819,0.933-1.304,1.37
			c-0.484,0.436-1.012,0.83-1.584,1.182c-0.367,0.229-0.768,0.447-1.205,0.66c-0.436,0.213-0.906,0.403-1.408,0.572
			c-0.502,0.168-1.036,0.305-1.601,0.406L105.124,59.443z M106.256,52.085c0.198,0.132,0.425,0.295,0.682,0.489
			c0.256,0.193,0.519,0.4,0.787,0.621s0.522,0.434,0.764,0.639c0.242,0.205,0.437,0.389,0.583,0.55l-0.869,0.892
			c-0.139-0.146-0.323-0.324-0.55-0.533c-0.228-0.209-0.471-0.426-0.731-0.649c-0.26-0.223-0.519-0.436-0.775-0.638
			c-0.257-0.202-0.488-0.372-0.693-0.512L106.256,52.085z"/>
		<path fill="#202B47" d="M120.776,51.723c-0.11,0.16-0.218,0.336-0.325,0.527c-0.106,0.189-0.188,0.341-0.247,0.451
			c-0.228,0.418-0.516,0.861-0.864,1.33c-0.348,0.47-0.75,0.93-1.205,1.381c-0.455,0.451-0.964,0.867-1.529,1.248l-0.968-0.727
			c0.477-0.285,0.902-0.59,1.276-0.912s0.698-0.646,0.973-0.974c0.275-0.325,0.512-0.641,0.709-0.94
			c0.198-0.301,0.363-0.572,0.495-0.813c0.066-0.11,0.139-0.263,0.22-0.456c0.081-0.195,0.143-0.373,0.187-0.534L120.776,51.723z
			 M124.417,53.416c-0.059,0.088-0.114,0.193-0.165,0.318c-0.051,0.125-0.099,0.242-0.143,0.353
			c-0.095,0.353-0.231,0.741-0.407,1.166c-0.176,0.425-0.392,0.86-0.649,1.304c-0.257,0.444-0.55,0.867-0.88,1.271
			c-0.506,0.624-1.109,1.188-1.81,1.694c-0.7,0.506-1.564,0.957-2.59,1.354l-1.023-0.913c0.711-0.213,1.336-0.461,1.875-0.742
			c0.539-0.282,1.016-0.593,1.43-0.93c0.415-0.338,0.783-0.697,1.105-1.078c0.279-0.315,0.53-0.666,0.754-1.051
			c0.224-0.386,0.418-0.771,0.583-1.154c0.165-0.386,0.276-0.731,0.335-1.04h-3.916l0.418-0.99c0.095,0,0.258,0,0.489,0
			c0.231,0,0.495,0,0.792,0c0.297,0,0.59,0,0.88,0s0.542,0,0.759,0c0.217,0,0.361,0,0.435,0c0.154,0,0.304-0.009,0.451-0.026
			c0.146-0.019,0.271-0.046,0.374-0.083L124.417,53.416z"/>
	</g>
</g>
</svg>
