<?xml version="1.0" encoding="utf-8"?>
<!-- Generator: Adobe Illustrator 16.0.0, SVG Export Plug-In . SVG Version: 6.00 Build 0)  -->
<!DOCTYPE svg PUBLIC "-//W3C//DTD SVG 1.1//EN" "http://www.w3.org/Graphics/SVG/1.1/DTD/svg11.dtd">
<svg version="1.1" xmlns="http://www.w3.org/2000/svg" xmlns:xlink="http://www.w3.org/1999/xlink" x="0px" y="0px"
	 width="266.774px" height="295.999px" viewBox="0 0 266.774 295.999" enable-background="new 0 0 266.774 295.999"
	 xml:space="preserve">
<g id="レイヤー_1" display="none">
	
		<text transform="matrix(1 0 0 1 1082.6499 144.9219)" display="inline" fill="#231815" font-family="'Futura-Medium'" font-size="123.9265">M</text>
	
		<text transform="matrix(1 0 0 1 1204.5103 158.041)" display="inline" fill="#231815" font-family="'Futura-Medium'" font-size="88.8595">S</text>
	
		<text transform="matrix(1 0 0 1 1269.5718 169.041)" display="inline" fill="#231815" font-family="'Futura-Medium'" font-size="88.8595">S</text>
	
		<text transform="matrix(1 0 0 1 593.3335 -150.7598)" display="inline" fill="#231815" font-family="'Futura-Medium'" font-size="50.3733">Mind Shift Systems</text>
	
		<text transform="matrix(1 0 0 1 518.1938 -329.251)" display="inline" fill="#231815" font-family="'Helvetica-Light'" font-size="50.3733">Mind Shift Systems</text>
	
		<text transform="matrix(1 0 0 1 455.4707 -209.8638)" display="inline" fill="#231815" font-family="'Futura-Medium'" font-size="88.8595">MIND</text>
	
		<text transform="matrix(1 0 0 1 1192.2671 79.8594)" display="inline" fill="#231815" font-family="'Futura-Medium'" font-size="34">ind</text>
	
		<text transform="matrix(1 0 0 1 1227.6577 192.8594)" display="inline" fill="#231815" font-family="'Futura-Medium'" font-size="34">hift</text>
	
		<text transform="matrix(1 0 0 1 1288.9136 193.8594)" display="inline" fill="#231815" font-family="'Futura-Medium'" font-size="34">ystems</text>
	
		<text transform="matrix(1 0 0 1 587.8853 -433.5146)" display="inline" fill="#231815" font-family="'Futura-Medium'" font-size="88.8595">SHIFT</text>
	<polygon display="inline" fill="#FFFFFF" stroke="#231815" stroke-width="10" stroke-miterlimit="10" points="462.973,93.497 
		462.973,71.748 462.973,49.999 462.973,28.25 462.973,6.501 499.465,6.501 535.958,6.501 572.45,6.501 608.943,6.501 
		608.943,28.25 608.943,49.999 608.943,71.748 	"/>
	<polygon display="inline" fill="#231815" stroke="#231815" stroke-width="10" stroke-miterlimit="10" points="608.919,71.748 
		608.919,93.497 608.919,115.246 608.919,136.995 608.919,158.744 572.427,158.744 535.934,158.744 499.442,158.744 
		462.949,158.744 462.949,136.995 462.949,115.246 462.949,93.497 	"/>
</g>
<g id="ガイド" display="none">
</g>
<g id="レイヤー_2" display="none">
	<polyline display="inline" fill="none" stroke="#C64122" stroke-width="5" stroke-miterlimit="10" points="235.333,268.666 
		257.333,188.666 281.333,263.666 305.333,188.666 327.333,268.666 	"/>
	
		<line display="inline" fill="none" stroke="#C64122" stroke-miterlimit="10" x1="1196.505" y1="63.861" x2="1196.505" y2="79.859"/>
	<line display="inline" fill="none" stroke="#C64122" stroke-miterlimit="10" x1="1196.505" y1="59.33" x2="1196.505" y2="54.8"/>
	
		<line display="inline" fill="none" stroke="#C64122" stroke-miterlimit="10" x1="1204.509" y1="63.861" x2="1204.509" y2="79.859"/>
	<g display="inline">
		<path fill="none" stroke="#C64122" stroke-miterlimit="10" d="M1204.509,79.859c0,0,0-4.204,0-10.035
			c0-4.853,10.758-7.265,10.758,0s0,10.035,0,10.035"/>
	</g>
	
		<line display="inline" fill="none" stroke="#C64122" stroke-miterlimit="10" x1="1235.431" y1="79.859" x2="1235.431" y2="51.865"/>
	<ellipse display="inline" fill="none" stroke="#C64122" stroke-miterlimit="10" cx="1229.05" cy="72.861" rx="6.381" ry="6.999"/>
	<path display="inline" fill="none" stroke="#C64122" stroke-miterlimit="10" d="M1217.287,145.074
		c2.094,5.936,7.664,10.18,14.209,10.18c8.338,0,15.096-6.893,15.096-15.394c0-5.562-2.893-8.232-7.229-10.936l-14.846-8.467
		c-4.336-2.703-7.23-5.374-7.23-10.936c0-8.501,6.758-15.394,15.096-15.394c6.545,0,12.115,4.244,14.211,10.18"/>
	
		<line display="inline" fill="none" stroke="#C64122" stroke-miterlimit="10" x1="1231.509" y1="164.88" x2="1231.509" y2="192.234"/>
	<g display="inline">
		<path fill="none" stroke="#C64122" stroke-miterlimit="10" d="M1231.509,192.234c0,0,0-4.204,0-10.035
			c0-4.853,10.758-7.265,10.758,0s0,10.035,0,10.035"/>
	</g>
	<g display="inline">
		<path fill="none" stroke="#C64122" stroke-miterlimit="10" d="M1258.898,169.041c0,0,0-1.627,0-3.883c0-1.878,4.164-2.812,4.164,0
			c0,2.811,0,3.883,0,3.883"/>
	</g>
	<g display="inline">
		<line fill="none" stroke="#C64122" stroke-miterlimit="10" x1="1255.148" y1="178.557" x2="1262.648" y2="178.557"/>
		<line fill="none" stroke="#C64122" stroke-miterlimit="10" x1="1258.898" y1="192.859" x2="1258.898" y2="169.041"/>
	</g>
	<g display="inline">
		<line fill="none" stroke="#C64122" stroke-miterlimit="10" x1="1265.822" y1="178.557" x2="1273.322" y2="178.557"/>
		<line fill="none" stroke="#C64122" stroke-miterlimit="10" x1="1269.572" y1="192.859" x2="1269.572" y2="169.041"/>
	</g>
	<g display="inline">
		
			<line fill="none" stroke="#C64122" stroke-width="5" stroke-miterlimit="10" x1="365.333" y1="228.666" x2="365.333" y2="268.666"/>
		<g>
			<path fill="none" stroke="#C64122" stroke-width="5" stroke-miterlimit="10" d="M365.333,268.666c0,0,0-11.5,0-27.45
				c0-13.272,26-19.871,26,0c0,19.872,0,27.45,0,27.45"/>
		</g>
	</g>
	<g display="inline">
		
			<line fill="none" stroke="#C64122" stroke-width="5" stroke-miterlimit="10" x1="940.097" y1="229.001" x2="940.097" y2="268.666"/>
		<g>
			<path fill="none" stroke="#C64122" stroke-width="5" stroke-miterlimit="10" d="M940.097,268.666c0,0,0-11.5,0-27.45
				c0-13.272,24.501-19.871,24.501,0c0,19.872,0,27.45,0,27.45"/>
		</g>
		<g>
			<path fill="none" stroke="#C64122" stroke-width="5" stroke-miterlimit="10" d="M964.598,268.666c0,0,0-11.5,0-27.45
				c0-13.272,24.501-19.871,24.501,0c0,19.872,0,27.45,0,27.45"/>
		</g>
	</g>
	<g display="inline">
		
			<line fill="none" stroke="#C64122" stroke-width="5" stroke-miterlimit="10" x1="440.333" y1="268.666" x2="440.333" y2="188.666"/>
		<ellipse fill="none" stroke="#C64122" stroke-width="5" stroke-miterlimit="10" cx="423.333" cy="248.667" rx="17" ry="20.001"/>
	</g>
	<g display="inline">
		
			<line fill="none" stroke="#C64122" stroke-width="5" stroke-miterlimit="10" x1="580.333" y1="188.666" x2="580.333" y2="268.666"/>
		<g>
			<path fill="none" stroke="#C64122" stroke-width="5" stroke-miterlimit="10" d="M580.333,268.666c0,0,0-11.501,0-27.45
				c0-13.273,26-19.871,26,0c0,19.872,0,27.45,0,27.45"/>
		</g>
	</g>
	<g display="inline">
		
			<line fill="none" stroke="#C64122" stroke-width="5" stroke-miterlimit="10" x1="677.14" y1="228.666" x2="703.398" y2="228.666"/>
		
			<line fill="none" stroke="#C64122" stroke-width="5" stroke-miterlimit="10" x1="690.269" y1="268.666" x2="690.269" y2="206.666"/>
	</g>
	<g display="inline">
		
			<line fill="none" stroke="#C64122" stroke-width="5" stroke-miterlimit="10" x1="865.333" y1="228.666" x2="891.591" y2="228.666"/>
		
			<line fill="none" stroke="#C64122" stroke-width="5" stroke-miterlimit="10" x1="878.462" y1="268.666" x2="878.462" y2="206.666"/>
	</g>
	<g display="inline">
		<g>
			<path fill="none" stroke="#C64122" stroke-width="5" stroke-miterlimit="10" d="M654.269,210.666c0,0,0-2.594,0-6.19
				c0-5.061,6.846-6.611,9.627-3.402"/>
		</g>
		
			<line fill="none" stroke="#C64122" stroke-width="5" stroke-miterlimit="10" x1="641.269" y1="228.666" x2="667.269" y2="228.666"/>
		
			<line fill="none" stroke="#C64122" stroke-width="5" stroke-miterlimit="10" x1="654.269" y1="268.676" x2="654.269" y2="210.666"/>
	</g>
	<g display="inline">
		
			<line fill="none" stroke="#C64122" stroke-width="5" stroke-miterlimit="10" x1="789.539" y1="228.666" x2="806.789" y2="268.666"/>
		<polyline fill="none" stroke="#C64122" stroke-width="5" stroke-miterlimit="10" points="825.333,228.666 807.333,268.667 
			789.333,308.666 		"/>
	</g>
	<g display="inline">
		<path fill="none" stroke="#C64122" stroke-width="5" stroke-miterlimit="10" d="M831.333,261.005
			c1.425,3.884,7.295,7.661,11.748,7.661c10.347,0,12.295-6.717,12.251-9.091c-0.043-2.373,0.021-4.923-6.399-9.175
			c-6.42-4.252-10.043-6.44-10.043-6.44c-2.951-1.769-5.477-4.278-5.477-7.917c0-5.562,4.598-7.377,10.271-7.377
			c4.453,0,8.244,3.777,9.669,7.661"/>
	</g>
	<g display="inline">
		<path fill="none" stroke="#C64122" stroke-width="5" stroke-miterlimit="10" d="M996.317,261.005
			c1.425,3.884,7.295,7.661,11.748,7.661c10.347,0,12.295-6.717,12.251-9.091c-0.043-2.373,0.021-4.923-6.399-9.175
			c-6.42-4.252-10.043-6.44-10.043-6.44c-2.951-1.769-5.477-4.278-5.477-7.917c0-5.562,4.598-7.377,10.271-7.377
			c4.453,0,8.244,3.777,9.669,7.661"/>
	</g>
	<g display="inline">
		<path fill="none" stroke="#C64122" stroke-width="5" stroke-miterlimit="10" d="M520.333,253.344
			c2.85,7.768,14.59,15.322,23.496,15.322c20.693,0,24.59-13.434,24.502-18.182c-0.086-4.746,0.043-9.846-12.799-18.35
			c-12.84-8.504-20.086-12.881-20.086-12.881c-5.902-3.537-10.953-8.557-10.953-15.834c0-11.125,9.195-14.754,20.541-14.754
			c8.906,0,16.488,7.555,19.338,15.322"/>
	</g>
	<g display="inline">
		<path fill="none" stroke="#C64122" stroke-width="5" stroke-miterlimit="10" d="M735.885,253.344
			c2.85,7.768,14.59,15.322,23.496,15.322c20.693,0,24.59-13.434,24.502-18.182c-0.086-4.746,0.043-9.846-12.799-18.35
			c-12.84-8.504-20.086-12.881-20.086-12.881c-5.902-3.537-10.953-8.557-10.953-15.834c0-11.125,9.195-14.754,20.541-14.754
			c8.906,0,16.488,7.555,19.338,15.322"/>
	</g>
	<g display="inline">
		<g>
			<path fill="none" stroke="#C64122" stroke-width="5" stroke-miterlimit="58" d="M891.764,248.667c0-1.38,0.119-2.729,0.346-4.03
				s0.561-2.559,0.991-3.755s0.957-2.333,1.568-3.397c0.612-1.064,1.308-2.055,2.078-2.96s1.613-1.724,2.519-2.442
				s1.872-1.338,2.89-1.845c1.019-0.506,2.087-0.898,3.194-1.165s2.255-0.406,3.43-0.406s2.322,0.14,3.43,0.406
				c1.108,0.267,2.178,0.659,3.195,1.165c1.018,0.507,1.985,1.126,2.891,1.845s1.748,1.537,2.519,2.442s1.466,1.896,2.078,2.96
				c0.611,1.064,1.138,2.201,1.568,3.397s0.765,2.453,0.991,3.755l-33.86-0.006"/>
		</g>
		<g>
			<path fill="none" stroke="#C64122" stroke-width="5" stroke-miterlimit="10" d="M926.75,252.697
				c-0.236,1.302-0.583,2.558-1.03,3.754c-0.446,1.196-0.993,2.333-1.628,3.397c-0.637,1.063-1.358,2.056-2.158,2.96
				c-0.801,0.904-1.676,1.723-2.616,2.441s-1.945,1.338-3.003,1.845c-1.056,0.506-2.167,0.898-3.318,1.165
				c-1.149,0.267-2.341,0.406-3.561,0.406s-2.412-0.14-3.562-0.406c-1.151-0.267-2.261-0.659-3.317-1.165
				c-1.057-0.507-2.061-1.126-3.001-1.845c-0.939-0.719-1.815-1.537-2.616-2.441c-0.8-0.904-1.521-1.896-2.158-2.96
				c-0.635-1.064-1.182-2.201-1.628-3.397c-0.447-1.196-0.794-2.452-1.03-3.754c-0.234-1.302-0.358-2.65-0.358-4.03"/>
		</g>
	</g>
	<g display="inline">
		
			<line fill="none" stroke="#C64122" stroke-width="5" stroke-miterlimit="10" x1="341.333" y1="228.666" x2="341.333" y2="268.666"/>
		<circle fill="#C64122" stroke="#C64122" stroke-width="5" stroke-miterlimit="10" cx="341.333" cy="214.666" r="4"/>
	</g>
	<g display="inline">
		
			<line fill="none" stroke="#C64122" stroke-width="5" stroke-miterlimit="10" x1="626.333" y1="228.666" x2="626.333" y2="268.666"/>
		<circle fill="#C64122" stroke="#C64122" stroke-width="5" stroke-miterlimit="10" cx="626.333" cy="214.666" r="4"/>
	</g>
	<g display="inline">
		<g>
			<polyline fill="none" stroke="#202B47" stroke-width="2" stroke-miterlimit="10" points="465.765,-31.115 481.765,-40.615 
				496.765,-14.115 520.265,-47.615 536.742,-3.678 			"/>
			<g>
				<polygon fill="#202B47" points="530.524,-3.216 539.765,4.385 541.729,-7.418 				"/>
			</g>
		</g>
	</g>
	<g display="inline">
		<g>
			<polyline fill="none" stroke="#202B47" stroke-width="2" stroke-miterlimit="10" points="465.765,-22.615 481.765,-13.115 
				496.765,-39.615 520.265,-6.115 536.742,-50.053 			"/>
			<g>
				<polygon fill="#202B47" points="541.729,-46.312 539.766,-58.115 530.525,-50.514 				"/>
			</g>
		</g>
	</g>
	<path display="inline" fill="none" stroke="#202B47" stroke-width="2" stroke-miterlimit="10" d="M802.833,157.666
		c3.5-6,10-16.5,17.5-8.5s9.5,22,17,23.5s11.5,0.5,19.5-12"/>
	<path display="inline" fill="none" stroke="#202B47" stroke-width="2" stroke-miterlimit="10" d="M849.264,185.127
		c5-11,25.5-31.5,33.5,7.5s38,20.5,51.5-11.5"/>
	<path display="inline" fill="none" stroke="#202B47" stroke-width="2" stroke-miterlimit="10" d="M849.264,199.342
		c5,11,25.5,31.5,33.5-7.5s38-20.5,51.5,11.5"/>
	<g display="inline">
		<g>
			<defs>
				<polygon id="SVGID_1_" points="543.448,-106.558 571.167,-110.925 568.735,-120.804 560.579,-127.319 549.761,-134.937 
					543.181,-132.409 535.406,-130.71 529.878,-128.946 525.102,-124.728 520.34,-120.323 518.211,-114.377 517.499,-107.77 
					518.328,-102.534 520.573,-96.756 526.323,-85.16 534.126,-81.088 				"/>
			</defs>
			<clipPath id="SVGID_2_">
				<use xlink:href="#SVGID_1_"  overflow="visible"/>
			</clipPath>
			
				<circle clip-path="url(#SVGID_2_)" fill="none" stroke="#F42B47" stroke-width="5" stroke-miterlimit="10" cx="543.448" cy="-106.557" r="21.228"/>
		</g>
		<g>
			<defs>
				<polygon id="SVGID_3_" points="543.448,-106.556 548.413,-124.835 543.352,-125.995 538.304,-127.153 532.352,-124.888 
					525.404,-120.373 522.242,-105.759 526.995,-94.437 535.842,-86.741 550.251,-85.55 553.235,-87.724 559.664,-92.868 
					563.03,-98.354 562.974,-104.052 				"/>
			</defs>
			<clipPath id="SVGID_4_">
				<use xlink:href="#SVGID_3_"  overflow="visible"/>
			</clipPath>
			
				<circle clip-path="url(#SVGID_4_)" fill="none" stroke="#F42B47" stroke-width="4" stroke-miterlimit="10" cx="543.448" cy="-106.557" r="17.336"/>
		</g>
		<g>
			<defs>
				<polygon id="SVGID_5_" points="543.387,-106.576 529.482,-106.731 529.905,-111.851 535.082,-118.747 543.244,-121.015 
					551.624,-119.067 554.917,-115.667 557.487,-110.229 557.557,-103.175 555.1,-97.249 549.699,-92.88 544.267,-91.679 
					540.384,-92.787 				"/>
			</defs>
			<clipPath id="SVGID_6_">
				<use xlink:href="#SVGID_5_"  overflow="visible"/>
			</clipPath>
			
				<circle clip-path="url(#SVGID_6_)" fill="none" stroke="#F42B47" stroke-width="3" stroke-miterlimit="10" cx="543.387" cy="-106.576" r="11.621"/>
		</g>
	</g>
	<g display="inline">
		<g>
			<defs>
				<polygon id="SVGID_7_" points="459.356,177.43 489.392,172.698 486.756,161.993 477.918,154.934 466.196,146.68 
					459.066,149.418 450.642,151.26 444.651,153.171 439.477,157.742 434.316,162.514 432.009,168.957 431.238,176.117 
					432.136,181.79 434.569,188.051 440.799,200.616 449.255,205.028 				"/>
			</defs>
			<clipPath id="SVGID_8_">
				<use xlink:href="#SVGID_7_"  overflow="visible"/>
			</clipPath>
			<path clip-path="url(#SVGID_8_)" fill="#202B47" d="M459.351,203.14c-14.035,0-25.565-11.419-25.705-25.454
				c-0.068-6.868,2.542-13.352,7.35-18.255c4.808-4.904,11.237-7.642,18.104-7.71l0.262-0.001c14.033,0,25.563,11.42,25.702,25.456
				c0.068,6.867-2.542,13.349-7.35,18.253c-4.808,4.903-11.237,7.642-18.104,7.71L459.351,203.14z M459.363,157.138l-0.208,0.001
				c-5.42,0.053-10.495,2.214-14.29,6.084c-3.795,3.871-5.855,8.988-5.801,14.409c0.109,11.077,9.21,20.09,20.287,20.09l0.206-0.001
				c5.42-0.054,10.495-2.215,14.29-6.086c3.795-3.869,5.855-8.985,5.801-14.405C479.538,166.151,470.438,157.138,459.363,157.138z"
				/>
		</g>
		<g>
			<defs>
				<polygon id="SVGID_9_" points="459.356,177.433 464.735,157.625 459.251,156.368 453.781,155.113 447.333,157.568 
					439.804,162.46 436.377,178.296 441.527,190.564 451.114,198.902 466.727,200.193 469.961,197.838 476.926,192.264 
					480.574,186.318 480.513,180.146 				"/>
			</defs>
			<clipPath id="SVGID_10_">
				<use xlink:href="#SVGID_9_"  overflow="visible"/>
			</clipPath>
			<path clip-path="url(#SVGID_10_)" fill="#202B47" d="M459.351,198.383c-11.437,0-20.833-9.306-20.947-20.743
				c-0.056-5.596,2.071-10.879,5.989-14.876c3.918-3.996,9.158-6.229,14.755-6.283l0.213-0.001c11.436,0,20.832,9.307,20.946,20.745
				c0.055,5.596-2.072,10.878-5.99,14.875c-3.918,3.996-9.158,6.228-14.753,6.282L459.351,198.383z M459.361,160.813l-0.169,0.001
				c-4.439,0.044-8.596,1.814-11.703,4.984c-3.107,3.169-4.794,7.359-4.75,11.799c0.089,9.07,7.542,16.451,16.612,16.451l0.17-0.001
				c4.438-0.044,8.594-1.813,11.701-4.983c3.107-3.169,4.794-7.359,4.75-11.797C475.882,168.194,468.43,160.813,459.361,160.813z"/>
		</g>
		<g>
			<defs>
				<polygon id="SVGID_11_" points="459.353,177.428 441.114,177.225 441.669,170.51 448.458,161.466 459.165,158.49 
					470.157,161.044 474.477,165.505 477.848,172.638 477.939,181.891 474.717,189.663 467.632,195.394 460.506,196.97 
					455.414,195.516 				"/>
			</defs>
			<clipPath id="SVGID_12_">
				<use xlink:href="#SVGID_11_"  overflow="visible"/>
			</clipPath>
			<path clip-path="url(#SVGID_12_)" fill="#202B47" d="M459.35,194.298c-9.207,0-16.771-7.492-16.864-16.701
				c-0.092-9.3,7.399-16.941,16.7-17.035l0.168-0.001c9.208,0,16.774,7.492,16.865,16.701c0.044,4.505-1.667,8.758-4.821,11.976
				c-3.154,3.218-7.373,5.015-11.877,5.06L459.35,194.298z M459.354,163.812l-0.136,0.001c-7.508,0.075-13.556,6.244-13.481,13.752
				c0.074,7.434,6.181,13.482,13.613,13.482l0.138-0.001c3.638-0.036,7.043-1.487,9.589-4.085c2.546-2.597,3.928-6.03,3.892-9.667
				C472.895,169.86,466.788,163.812,459.354,163.812z"/>
		</g>
	</g>
	<g display="inline">
		<g>
			<defs>
				<polygon id="SVGID_13_" points="492.43,-75.504 520.149,-79.871 517.717,-89.75 509.561,-96.266 498.743,-103.883 
					492.163,-101.355 484.388,-99.656 478.859,-97.893 474.083,-93.674 469.321,-89.27 467.192,-83.323 466.48,-76.716 
					467.31,-71.48 469.555,-65.702 475.304,-54.106 483.108,-50.034 				"/>
			</defs>
			<clipPath id="SVGID_14_">
				<use xlink:href="#SVGID_13_"  overflow="visible"/>
			</clipPath>
			
				<circle clip-path="url(#SVGID_14_)" fill="none" stroke="#F42B47" stroke-width="5" stroke-miterlimit="10" cx="492.43" cy="-75.503" r="21.228"/>
		</g>
		<g>
			<defs>
				<polygon id="SVGID_15_" points="492.43,-75.502 497.395,-93.781 492.333,-94.941 487.285,-96.1 481.333,-93.834 
					474.386,-89.319 471.224,-74.705 475.976,-63.383 484.824,-55.688 499.232,-54.496 502.217,-56.67 508.645,-61.814 
					512.012,-67.301 511.956,-72.998 				"/>
			</defs>
			<clipPath id="SVGID_16_">
				<use xlink:href="#SVGID_15_"  overflow="visible"/>
			</clipPath>
			
				<circle clip-path="url(#SVGID_16_)" fill="none" stroke="#F42B47" stroke-width="4" stroke-miterlimit="10" cx="492.43" cy="-75.503" r="17.336"/>
		</g>
		<g>
			<defs>
				<polygon id="SVGID_17_" points="492.427,-75.506 475.595,-75.693 476.107,-81.891 482.373,-90.237 492.254,-92.983 
					502.397,-90.626 506.385,-86.51 509.496,-79.927 509.58,-71.388 506.606,-64.215 500.067,-58.926 493.492,-57.472 
					488.792,-58.813 				"/>
			</defs>
			<clipPath id="SVGID_18_">
				<use xlink:href="#SVGID_17_"  overflow="visible"/>
			</clipPath>
			
				<circle clip-path="url(#SVGID_18_)" fill="none" stroke="#F42B47" stroke-width="3" stroke-miterlimit="10" cx="492.427" cy="-75.505" r="14.067"/>
		</g>
	</g>
	<g display="inline">
		<g>
			<polygon fill="#F42B47" points="596.366,-68.378 604.633,-71.34 602.566,-64.088 			"/>
			<path fill="#FFFFFF" d="M603.885-70.541l-1.608,5.645l-4.826-3.339L603.885-70.541 M605.38-72.139l-1.833,0.656l-6.435,2.306
				l-1.832,0.656l1.601,1.107l4.826,3.339l1.148,0.794l0.383-1.342l1.608-5.645L605.38-72.139L605.38-72.139z"/>
		</g>
		<g>
			<defs>
				<polygon id="SVGID_19_" points="587.93,-63.438 569.367,-51.043 571.61,-69.822 577.876,-78.169 587.757,-80.915 597.9,-78.558 
					601.888,-74.441 604.229,-70.45 				"/>
			</defs>
			<clipPath id="SVGID_20_">
				<use xlink:href="#SVGID_19_"  overflow="visible"/>
			</clipPath>
			
				<circle clip-path="url(#SVGID_20_)" fill="none" stroke="#F42B47" stroke-width="4" stroke-miterlimit="10" cx="587.93" cy="-63.437" r="14.067"/>
		</g>
		<g>
			<g>
				<polygon fill="#F42B47" points="601.447,-61.147 605.66,-65.66 608.576,-60.222 				"/>
				<path fill="#FFFFFF" d="M605.549-64.809l2.127,3.966l-5.199-0.675L605.549-64.809 M605.771-66.512l-0.953,1.021l-3.072,3.291
					l-1.329,1.424l1.931,0.251l5.199,0.674l1.93,0.251l-0.919-1.715l-2.127-3.966L605.771-66.512L605.771-66.512z"/>
			</g>
			<g>
				<defs>
					<polygon id="SVGID_21_" points="587.933,-63.436 592.897,-81.713 587.836,-82.873 582.788,-84.031 576.836,-81.766 
						569.889,-77.251 566.727,-62.637 575.583,-44.534 583.583,-42.229 588.818,-42.229 597.72,-44.602 604.148,-49.746 
						607.515,-55.232 607.458,-60.93 					"/>
				</defs>
				<clipPath id="SVGID_22_">
					<use xlink:href="#SVGID_21_"  overflow="visible"/>
				</clipPath>
				
					<circle clip-path="url(#SVGID_22_)" fill="none" stroke="#F42B47" stroke-width="3" stroke-miterlimit="10" cx="587.933" cy="-63.435" r="17.336"/>
			</g>
		</g>
		<g>
			<g>
				<polygon fill="#F42B47" points="579.018,-39.28 586.623,-41.542 582.034,-48.016 				"/>
			</g>
			<g>
				<defs>
					<polygon id="SVGID_23_" points="587.933,-63.436 611.475,-78.451 609.653,-80.915 605.063,-84.197 594.246,-91.814 
						587.666,-89.287 579.891,-87.588 574.362,-85.824 569.586,-81.605 564.824,-77.201 562.695,-71.255 561.983,-64.647 
						562.812,-59.412 565.058,-53.634 570.807,-42.038 578.611,-37.966 					"/>
				</defs>
				<clipPath id="SVGID_24_">
					<use xlink:href="#SVGID_23_"  overflow="visible"/>
				</clipPath>
				
					<circle clip-path="url(#SVGID_24_)" fill="none" stroke="#F42B47" stroke-width="5" stroke-miterlimit="10" cx="587.933" cy="-63.435" r="21.228"/>
			</g>
		</g>
	</g>
	<g display="inline">
		<g>
			<defs>
				<polygon id="SVGID_25_" points="778.14,-245.576 810.338,-250.649 807.513,-262.124 798.039,-269.693 785.474,-278.537 
					777.83,-275.601 768.799,-273.628 762.378,-271.582 756.83,-266.682 751.298,-261.566 748.826,-254.659 748,-246.984 
					748.962,-240.903 751.57,-234.191 758.248,-220.723 767.313,-215.992 				"/>
			</defs>
			<clipPath id="SVGID_26_">
				<use xlink:href="#SVGID_25_"  overflow="visible"/>
			</clipPath>
			<path clip-path="url(#SVGID_26_)" fill="#202B47" d="M778.136-218.017c-15.045,0-27.406-12.241-27.556-27.286
				c-0.073-7.362,2.726-14.312,7.88-19.569c5.153-5.257,12.045-8.188,19.408-8.26l0.279-0.002c15.043,0,27.403,12.237,27.553,27.285
				c0.072,7.36-2.725,14.309-7.879,19.566c-5.154,5.256-12.047,8.192-19.408,8.265L778.136-218.017z M778.148-267.33l-0.223,0.002
				c-5.811,0.057-11.25,2.372-15.318,6.521c-4.067,4.15-6.276,9.636-6.219,15.446c0.117,11.875,9.874,21.536,21.748,21.536
				l0.22-0.001c5.811-0.059,11.251-2.374,15.318-6.523c4.067-4.148,6.276-9.633,6.218-15.443
				C799.775-257.667,790.021-267.33,778.148-267.33z"/>
		</g>
		<g>
			<defs>
				<polygon id="SVGID_27_" points="778.14,-245.574 783.908,-266.808 778.029,-268.154 772.166,-269.5 765.251,-266.868 
					757.181,-261.624 753.508,-244.648 759.029,-231.497 769.306,-222.559 786.042,-221.175 789.509,-223.7 796.976,-229.675 
					800.886,-236.048 800.822,-242.666 				"/>
			</defs>
			<clipPath id="SVGID_28_">
				<use xlink:href="#SVGID_27_"  overflow="visible"/>
			</clipPath>
			<path clip-path="url(#SVGID_28_)" fill="#202B47" d="M778.134-223.115c-12.26,0-22.332-9.976-22.453-22.236
				c-0.061-5.999,2.221-11.662,6.42-15.947c4.2-4.284,9.817-6.677,15.816-6.735l0.229-0.001c12.259,0,22.332,9.976,22.453,22.239
				c0.123,12.383-9.853,22.557-22.236,22.68L778.134-223.115z M778.146-263.389l-0.182,0.001c-4.759,0.047-9.215,1.943-12.545,5.343
				c-3.331,3.397-5.141,7.889-5.092,12.647c0.096,9.724,8.084,17.636,17.807,17.636l0.183-0.001
				c9.821-0.098,17.733-8.167,17.636-17.988C795.857-255.478,787.869-263.389,778.146-263.389z"/>
		</g>
		<g>
			<defs>
				<polygon id="SVGID_29_" points="778.07,-245.599 761.917,-245.778 762.41,-251.725 768.422,-259.735 777.904,-262.369 
					787.636,-260.107 791.462,-256.157 794.449,-249.842 794.529,-241.647 791.675,-234.764 785.401,-229.689 779.091,-228.293 
					774.582,-229.581 				"/>
			</defs>
			<clipPath id="SVGID_30_">
				<use xlink:href="#SVGID_29_"  overflow="visible"/>
			</clipPath>
			<path clip-path="url(#SVGID_30_)" fill="#202B47" d="M778.068-230.356c-8.32,0-15.154-6.771-15.238-15.091
				c-0.082-8.401,6.686-15.307,15.089-15.391l0.151-0.001c8.32,0,15.156,6.77,15.238,15.09c0.041,4.07-1.506,7.913-4.355,10.819
				c-2.85,2.907-6.66,4.531-10.732,4.572L778.068-230.356z M778.07-257.354l-0.117,0.001c-6.481,0.065-11.702,5.391-11.639,11.872
				c0.064,6.419,5.336,11.64,11.754,11.64l0.119-0.001c3.14-0.031,6.079-1.283,8.277-3.525c2.197-2.242,3.391-5.207,3.359-8.347
				C789.761-252.133,784.488-257.354,778.07-257.354z"/>
		</g>
	</g>
</g>
<g id="ci_x5F_logo">
	<text transform="matrix(1 0 0 1 832.064 -24.2812)" fill="#202B47" font-family="'NotoSansJP-Regular'" font-size="13.2214">マインド  シフト  システムズ</text>
	<g>
		<g>
			<path fill="none" stroke="#202B47" stroke-width="5" stroke-miterlimit="10" d="M890.215-58.439
				c1.427,3.882,7.296,7.656,11.752,7.656c10.345,0,12.293-6.714,12.245-9.089c-0.035-2.371,0.031-4.922-6.396-9.176
				c-6.419-4.251-10.043-6.441-10.043-6.441c-2.951-1.771-5.478-4.277-5.478-7.918c0-5.562,4.597-7.376,10.271-7.376
				c4.452,0,8.244,3.777,9.672,7.662"/>
		</g>
		<g>
			
				<line fill="none" stroke="#202B47" stroke-width="2" stroke-miterlimit="10" x1="972.153" y1="-63.211" x2="972.153" y2="-50.783"/>
			<g>
				<path fill="none" stroke="#202B47" stroke-width="2" stroke-miterlimit="10" d="M972.153-50.783c0,0,0-3.604,0-8.602
					c0-4.158,7.677-6.226,7.677,0c0,6.228,0,8.602,0,8.602"/>
			</g>
			<g>
				<path fill="none" stroke="#202B47" stroke-width="2" stroke-miterlimit="10" d="M979.83-50.783c0,0,0-3.604,0-8.602
					c0-4.158,7.677-6.226,7.677,0c0,6.228,0,8.602,0,8.602"/>
			</g>
		</g>
		<g>
			
				<line fill="none" stroke="#202B47" stroke-width="2" stroke-miterlimit="10" x1="945.527" y1="-63.317" x2="953.754" y2="-63.317"/>
			
				<line fill="none" stroke="#202B47" stroke-width="2" stroke-miterlimit="10" x1="949.641" y1="-50.783" x2="949.641" y2="-70.21"/>
		</g>
		<g>
			
				<line fill="none" stroke="#202B47" stroke-width="2" stroke-miterlimit="10" x1="920.677" y1="-63.317" x2="926.083" y2="-50.783"/>
			<polyline fill="none" stroke="#202B47" stroke-width="2" stroke-miterlimit="10" points="931.893,-63.317 926.253,-50.783 
				920.614,-38.249 			"/>
		</g>
		<g>
			<path fill="none" stroke="#202B47" stroke-width="2" stroke-miterlimit="10" d="M935.67-53.184c0.447,1.217,2.285,2.4,3.681,2.4
				c3.243,0,3.853-2.104,3.84-2.848c-0.014-0.743,0.007-1.544-2.006-2.876c-2.012-1.332-3.146-2.018-3.146-2.018
				c-0.926-0.555-1.717-1.34-1.717-2.48c0-1.743,1.441-2.312,3.219-2.312c1.396,0,2.583,1.186,3.028,2.4"/>
		</g>
		<g>
			<path fill="none" stroke="#202B47" stroke-width="2" stroke-miterlimit="10" d="M992.266-53.184c0.447,1.217,2.286,2.4,3.682,2.4
				c3.242,0,3.853-2.104,3.839-2.848s0.007-1.544-2.006-2.876c-2.011-1.332-3.147-2.018-3.147-2.018
				c-0.924-0.555-1.716-1.34-1.716-2.48c0-1.743,1.44-2.312,3.22-2.312c1.395,0,2.583,1.186,3.029,2.4"/>
		</g>
		<g>
			<g>
				<path fill="none" stroke="#202B47" stroke-width="2" stroke-miterlimit="58" d="M956.304-57.05c0-0.432,0.036-0.854,0.108-1.262
					c0.07-0.409,0.175-0.803,0.309-1.178c0.136-0.374,0.301-0.73,0.492-1.065c0.192-0.333,0.409-0.642,0.65-0.927
					c0.243-0.283,0.507-0.539,0.79-0.765c0.283-0.225,0.586-0.419,0.905-0.578c0.318-0.159,0.653-0.281,1.001-0.364
					c0.347-0.084,0.706-0.129,1.075-0.129c0.367,0,0.727,0.045,1.073,0.129c0.348,0.083,0.684,0.205,1.003,0.364
					c0.317,0.159,0.621,0.354,0.906,0.578c0.282,0.226,0.547,0.481,0.788,0.765c0.241,0.285,0.46,0.594,0.65,0.927
					c0.192,0.335,0.356,0.691,0.492,1.065c0.135,0.375,0.24,0.769,0.311,1.178l-10.61-0.002"/>
			</g>
			<g>
				<path fill="none" stroke="#202B47" stroke-width="2" stroke-miterlimit="10" d="M967.265-55.786
					c-0.074,0.407-0.183,0.801-0.323,1.176c-0.14,0.375-0.312,0.731-0.509,1.064c-0.2,0.333-0.426,0.645-0.677,0.927
					c-0.251,0.284-0.526,0.54-0.82,0.767c-0.294,0.225-0.609,0.418-0.941,0.576c-0.329,0.159-0.678,0.282-1.04,0.366
					c-0.359,0.084-0.732,0.127-1.114,0.127c-0.383,0-0.756-0.043-1.115-0.127c-0.362-0.084-0.71-0.207-1.041-0.366
					c-0.331-0.158-0.646-0.352-0.939-0.576c-0.294-0.227-0.569-0.482-0.82-0.767c-0.251-0.282-0.477-0.594-0.677-0.927
					c-0.199-0.333-0.369-0.689-0.51-1.064c-0.14-0.375-0.249-0.769-0.322-1.176c-0.074-0.408-0.111-0.831-0.111-1.264"/>
			</g>
		</g>
	</g>
	<g>
		<polyline fill="none" stroke="#202B47" stroke-width="5" stroke-miterlimit="10" points="705.962,-50.783 716.965,-90.783 
			728.965,-58.218 740.962,-90.783 751.961,-50.783 		"/>
		<g>
			<g>
				
					<line fill="none" stroke="#202B47" stroke-width="2" stroke-miterlimit="10" x1="767.715" y1="-63.316" x2="767.715" y2="-50.783"/>
				<g>
					<path fill="none" stroke="#202B47" stroke-width="2" stroke-miterlimit="10" d="M767.715-50.783c0,0,0-3.604,0-8.602
						c0-4.158,8.146-6.226,8.146,0c0,6.228,0,8.602,0,8.602"/>
				</g>
			</g>
			<g>
				
					<line fill="none" stroke="#202B47" stroke-width="2" stroke-miterlimit="10" x1="791.213" y1="-50.783" x2="791.213" y2="-75.85"/>
				
					<ellipse fill="none" stroke="#202B47" stroke-width="2" stroke-miterlimit="10" cx="785.888" cy="-57.05" rx="5.326" ry="6.267"/>
			</g>
			<g>
				
					<line fill="none" stroke="#202B47" stroke-width="2" stroke-miterlimit="10" x1="760.194" y1="-63.316" x2="760.194" y2="-50.783"/>
				<circle fill="#202B47" stroke="#202B47" stroke-width="2" stroke-miterlimit="10" cx="760.195" cy="-67.702" r="1.253"/>
			</g>
		</g>
	</g>
	<g>
		<g>
			<path fill="none" stroke="#202B47" stroke-width="5" stroke-miterlimit="10" d="M805.833-58.441
				c1.425,3.886,7.296,7.658,11.75,7.658c10.348,0,12.297-6.715,12.247-9.089c-0.036-2.37,0.031-4.923-6.396-9.176
				c-6.419-4.25-10.042-6.441-10.042-6.441c-2.953-1.77-5.478-4.278-5.478-7.917c0-5.563,4.596-7.377,10.27-7.377
				c4.455,0,8.246,3.777,9.672,7.663"/>
		</g>
		<g>
			
				<line fill="none" stroke="#202B47" stroke-width="2" stroke-miterlimit="10" x1="837.106" y1="-75.854" x2="837.106" y2="-50.787"/>
			<g>
				<path fill="none" stroke="#202B47" stroke-width="2" stroke-miterlimit="10" d="M837.106-50.787c0,0,0-3.604,0-8.602
					c0-4.158,8.146-6.226,8.146,0c0,6.228,0,8.602,0,8.602"/>
			</g>
		</g>
		<g>
			
				<line fill="none" stroke="#202B47" stroke-width="2" stroke-miterlimit="10" x1="868.439" y1="-63.321" x2="876.667" y2="-63.321"/>
			
				<line fill="none" stroke="#202B47" stroke-width="2" stroke-miterlimit="10" x1="872.552" y1="-50.787" x2="872.552" y2="-70.214"/>
		</g>
		<g>
			<g>
				<path fill="none" stroke="#202B47" stroke-width="2" stroke-miterlimit="10" d="M861.273-68.961c0,0,0-0.812,0-1.939
					c0-1.586,2.145-2.07,3.016-1.065"/>
			</g>
			
				<line fill="none" stroke="#202B47" stroke-width="2" stroke-miterlimit="10" x1="857.199" y1="-63.321" x2="865.346" y2="-63.321"/>
			
				<line fill="none" stroke="#202B47" stroke-width="2" stroke-miterlimit="10" x1="861.273" y1="-50.783" x2="861.273" y2="-68.961"/>
		</g>
		<g>
			
				<line fill="none" stroke="#202B47" stroke-width="2" stroke-miterlimit="10" x1="851.519" y1="-63.321" x2="851.519" y2="-50.787"/>
			<circle fill="#202B47" stroke="#202B47" stroke-width="2" stroke-miterlimit="10" cx="851.52" cy="-67.706" r="1.253"/>
		</g>
	</g>
	<g>
		<g>
			<polygon fill="#202B47" points="676.068,-67.715 683.225,-62.764 685.61,-71.134 			"/>
			<path fill="#FFFFFF" d="M685.61-71.134l-2.385,8.37l-7.156-4.951L685.61-71.134 M687.827-73.503l-2.717,0.974l-9.542,3.419
				l-2.716,0.973l2.373,1.643l7.157,4.95l1.702,1.178l0.567-1.99l2.385-8.369L687.827-73.503L687.827-73.503z"/>
		</g>
		<g>
			<defs>
				<polygon id="SVGID_31_" points="661.951,-60.601 634.424,-42.222 637.75,-70.068 647.042,-82.444 661.694,-86.517 
					676.735,-83.021 682.647,-76.917 686.119,-70.999 				"/>
			</defs>
			<clipPath id="SVGID_32_">
				<use xlink:href="#SVGID_31_"  overflow="visible"/>
			</clipPath>
			<path clip-path="url(#SVGID_32_)" fill="#202B47" d="M661.946-36.773c-13.004,0-23.688-10.583-23.819-23.59
				c-0.13-13.134,10.451-23.928,23.587-24.06l0.238-0.001c13.006,0,23.692,10.582,23.82,23.589
				c0.063,6.363-2.355,12.369-6.81,16.913c-4.455,4.546-10.412,7.083-16.776,7.146L661.946-36.773z M661.952-78.493l-0.179,0.002
				c-9.866,0.099-17.813,8.204-17.714,18.07c0.098,9.768,8.122,17.716,17.887,17.716l0.182-0.001c4.78-0.048,9.254-1.954,12.6-5.367
				c3.345-3.413,5.162-7.924,5.114-12.704C679.745-70.546,671.72-78.493,661.952-78.493z"/>
		</g>
		<g>
			<g>
				<polygon fill="#202B47" points="691.23,-56.753 688.077,-62.634 683.521,-57.754 				"/>
				<path fill="#FFFFFF" d="M688.077-62.634l3.154,5.881l-7.709-1.001L688.077-62.634 M688.405-65.159l-1.413,1.514l-4.555,4.88
					l-1.97,2.111l2.863,0.372l7.708,0.999l2.862,0.372l-1.364-2.543l-3.154-5.88L688.405-65.159L688.405-65.159z"/>
			</g>
			<g>
				<defs>
					<polygon id="SVGID_33_" points="661.955,-60.598 669.316,-87.7 661.812,-89.42 654.326,-91.138 645.501,-87.778 
						635.198,-81.084 630.509,-59.413 643.643,-32.57 655.505,-29.152 663.267,-29.152 676.467,-32.67 685.999,-40.298 
						690.992,-48.434 690.908,-56.882 					"/>
				</defs>
				<clipPath id="SVGID_34_">
					<use xlink:href="#SVGID_33_"  overflow="visible"/>
				</clipPath>
				<path clip-path="url(#SVGID_34_)" fill="#202B47" d="M661.947-32.665c-15.246,0-27.772-12.404-27.923-27.653
					c-0.074-7.46,2.762-14.502,7.984-19.83c5.224-5.328,12.209-8.303,19.67-8.377l0.284-0.001c15.245,0,27.77,12.405,27.922,27.655
					c0.074,7.459-2.762,14.501-7.985,19.828c-5.223,5.328-12.208,8.302-19.668,8.376L661.947-32.665z M661.962-84.078l-0.24,0.001
					c-6.273,0.062-12.146,2.563-16.537,7.042c-4.391,4.479-6.775,10.4-6.712,16.674c0.126,12.818,10.657,23.247,23.475,23.247
					l0.24-0.001c6.271-0.062,12.144-2.563,16.535-7.042c4.392-4.478,6.776-10.398,6.713-16.671
					C685.308-73.647,674.777-84.078,661.962-84.078z"/>
			</g>
		</g>
		<g>
			<g>
				<polygon fill="#202B47" points="648.735,-24.779 660.013,-28.133 653.208,-37.732 				"/>
			</g>
			<g>
				<defs>
					<polygon id="SVGID_35_" points="661.955,-60.598 696.864,-82.863 694.162,-86.517 687.357,-91.384 671.315,-102.679 
						661.559,-98.931 650.03,-96.411 641.832,-93.796 634.75,-87.541 627.688,-81.01 624.532,-72.192 623.476,-62.395 
						624.706,-54.632 628.035,-46.063 636.561,-28.868 648.132,-22.83 					"/>
				</defs>
				<clipPath id="SVGID_36_">
					<use xlink:href="#SVGID_35_"  overflow="visible"/>
				</clipPath>
				<path clip-path="url(#SVGID_36_)" fill="#202B47" d="M661.948-25.415c-19.206,0-34.986-15.626-35.176-34.834
					c-0.093-9.397,3.479-18.27,10.059-24.98c6.579-6.712,15.377-10.458,24.776-10.551l0.357-0.001
					c19.204,0,34.983,15.627,35.173,34.836c0.093,9.396-3.479,18.267-10.059,24.979c-6.579,6.71-15.378,10.458-24.775,10.551
					L661.948-25.415z M661.964-88.367l-0.284,0.001c-7.417,0.072-14.362,3.029-19.555,8.327c-5.193,5.297-8.012,12.3-7.938,19.718
					c0.15,15.159,12.604,27.492,27.762,27.492l0.281-0.002c7.417-0.073,14.362-3.03,19.555-8.327
					c5.193-5.296,8.012-12.298,7.938-19.715C689.573-76.032,677.12-88.367,661.964-88.367z"/>
			</g>
		</g>
	</g>
	<text transform="matrix(1 0 0 1 136.73 -161.7427)" fill="#FFFFFF" font-family="'NotoSansJP-Regular'" font-size="13.2214">マインド  シフト  システムズ</text>
	<g>
		<g>
			<path fill="none" stroke="#FFFFFF" stroke-width="5" stroke-miterlimit="10" d="M194.881-195.901
				c1.427,3.882,7.296,7.656,11.752,7.656c10.345,0,12.293-6.714,12.245-9.089c-0.035-2.371,0.031-4.922-6.396-9.176
				c-6.419-4.251-10.043-6.441-10.043-6.441c-2.951-1.771-5.478-4.277-5.478-7.918c0-5.562,4.597-7.376,10.271-7.376
				c4.452,0,8.244,3.777,9.672,7.662"/>
		</g>
		<g>
			
				<line fill="none" stroke="#FFFFFF" stroke-width="2" stroke-miterlimit="10" x1="276.818" y1="-200.673" x2="276.818" y2="-188.245"/>
			<g>
				<path fill="none" stroke="#FFFFFF" stroke-width="2" stroke-miterlimit="10" d="M276.818-188.245c0,0,0-3.604,0-8.602
					c0-4.158,7.677-6.226,7.677,0c0,6.228,0,8.602,0,8.602"/>
			</g>
			<g>
				<path fill="none" stroke="#FFFFFF" stroke-width="2" stroke-miterlimit="10" d="M284.495-188.245c0,0,0-3.604,0-8.602
					c0-4.158,7.677-6.226,7.677,0c0,6.228,0,8.602,0,8.602"/>
			</g>
		</g>
		<g>
			
				<line fill="none" stroke="#FFFFFF" stroke-width="2" stroke-miterlimit="10" x1="250.192" y1="-200.779" x2="258.42" y2="-200.779"/>
			
				<line fill="none" stroke="#FFFFFF" stroke-width="2" stroke-miterlimit="10" x1="254.307" y1="-188.245" x2="254.307" y2="-207.672"/>
		</g>
		<g>
			
				<line fill="none" stroke="#FFFFFF" stroke-width="2" stroke-miterlimit="10" x1="225.343" y1="-200.779" x2="230.748" y2="-188.245"/>
			<polyline fill="none" stroke="#FFFFFF" stroke-width="2" stroke-miterlimit="10" points="236.559,-200.779 230.919,-188.245 
				225.279,-175.711 			"/>
		</g>
		<g>
			<path fill="none" stroke="#FFFFFF" stroke-width="2" stroke-miterlimit="10" d="M240.336-190.646
				c0.447,1.217,2.285,2.4,3.681,2.4c3.243,0,3.853-2.104,3.84-2.848c-0.014-0.743,0.007-1.544-2.006-2.876
				c-2.012-1.332-3.146-2.018-3.146-2.018c-0.926-0.555-1.717-1.34-1.717-2.48c0-1.743,1.441-2.312,3.219-2.312
				c1.396,0,2.583,1.186,3.028,2.4"/>
		</g>
		<g>
			<path fill="none" stroke="#FFFFFF" stroke-width="2" stroke-miterlimit="10" d="M296.932-190.646
				c0.447,1.217,2.286,2.4,3.682,2.4c3.242,0,3.853-2.104,3.839-2.848s0.007-1.544-2.006-2.876
				c-2.011-1.332-3.147-2.018-3.147-2.018c-0.924-0.555-1.716-1.34-1.716-2.48c0-1.743,1.44-2.312,3.22-2.312
				c1.395,0,2.583,1.186,3.029,2.4"/>
		</g>
		<g>
			<g>
				<path fill="none" stroke="#FFFFFF" stroke-width="2" stroke-miterlimit="58" d="M260.97-194.512
					c0-0.432,0.036-0.854,0.108-1.262c0.07-0.409,0.175-0.803,0.309-1.178c0.136-0.374,0.301-0.73,0.492-1.065
					c0.192-0.333,0.409-0.642,0.65-0.927c0.243-0.283,0.507-0.539,0.79-0.765c0.283-0.225,0.586-0.419,0.905-0.578
					c0.318-0.159,0.653-0.281,1.001-0.364c0.347-0.084,0.706-0.129,1.075-0.129c0.367,0,0.727,0.045,1.073,0.129
					c0.348,0.083,0.684,0.205,1.003,0.364c0.317,0.159,0.621,0.354,0.906,0.578c0.282,0.226,0.547,0.481,0.788,0.765
					c0.241,0.285,0.46,0.594,0.65,0.927c0.192,0.335,0.356,0.691,0.492,1.065c0.135,0.375,0.24,0.769,0.311,1.178l-10.61-0.002"/>
			</g>
			<g>
				<path fill="none" stroke="#FFFFFF" stroke-width="2" stroke-miterlimit="10" d="M271.931-193.248
					c-0.074,0.407-0.183,0.801-0.323,1.176c-0.14,0.375-0.312,0.731-0.509,1.064c-0.2,0.333-0.426,0.645-0.677,0.927
					c-0.251,0.284-0.526,0.54-0.82,0.767c-0.294,0.225-0.609,0.418-0.941,0.576c-0.329,0.159-0.678,0.282-1.04,0.366
					c-0.359,0.084-0.732,0.127-1.114,0.127c-0.383,0-0.756-0.043-1.115-0.127c-0.362-0.084-0.71-0.207-1.041-0.366
					c-0.331-0.158-0.646-0.352-0.939-0.576c-0.294-0.227-0.569-0.482-0.82-0.767c-0.251-0.282-0.477-0.594-0.677-0.927
					c-0.199-0.333-0.369-0.689-0.51-1.064c-0.14-0.375-0.249-0.769-0.322-1.176c-0.074-0.408-0.111-0.831-0.111-1.264"/>
			</g>
		</g>
	</g>
	<g>
		<polyline fill="none" stroke="#FFFFFF" stroke-width="5" stroke-miterlimit="10" points="10.628,-188.245 21.63,-228.245 
			33.631,-195.68 45.628,-228.245 56.627,-188.245 		"/>
		<g>
			<g>
				
					<line fill="none" stroke="#FFFFFF" stroke-width="2" stroke-miterlimit="10" x1="72.381" y1="-200.778" x2="72.381" y2="-188.245"/>
				<g>
					<path fill="none" stroke="#FFFFFF" stroke-width="2" stroke-miterlimit="10" d="M72.381-188.245c0,0,0-3.604,0-8.602
						c0-4.158,8.146-6.226,8.146,0c0,6.228,0,8.602,0,8.602"/>
				</g>
			</g>
			<g>
				
					<line fill="none" stroke="#FFFFFF" stroke-width="2" stroke-miterlimit="10" x1="95.879" y1="-188.245" x2="95.879" y2="-213.312"/>
				
					<ellipse fill="none" stroke="#FFFFFF" stroke-width="2" stroke-miterlimit="10" cx="90.553" cy="-194.512" rx="5.326" ry="6.267"/>
			</g>
			<g>
				
					<line fill="none" stroke="#FFFFFF" stroke-width="2" stroke-miterlimit="10" x1="64.859" y1="-200.778" x2="64.859" y2="-188.245"/>
				<circle fill="#FFFFFF" stroke="#FFFFFF" stroke-width="2" stroke-miterlimit="10" cx="64.86" cy="-205.164" r="1.253"/>
			</g>
		</g>
	</g>
	<g>
		<g>
			<path fill="none" stroke="#FFFFFF" stroke-width="5" stroke-miterlimit="10" d="M110.499-195.903
				c1.425,3.886,7.296,7.658,11.75,7.658c10.348,0,12.297-6.715,12.247-9.089c-0.036-2.37,0.031-4.923-6.396-9.176
				c-6.419-4.25-10.042-6.441-10.042-6.441c-2.953-1.77-5.478-4.278-5.478-7.917c0-5.563,4.596-7.377,10.27-7.377
				c4.455,0,8.246,3.777,9.672,7.663"/>
		</g>
		<g>
			
				<line fill="none" stroke="#FFFFFF" stroke-width="2" stroke-miterlimit="10" x1="141.771" y1="-213.315" x2="141.771" y2="-188.249"/>
			<g>
				<path fill="none" stroke="#FFFFFF" stroke-width="2" stroke-miterlimit="10" d="M141.771-188.249c0,0,0-3.604,0-8.602
					c0-4.158,8.146-6.226,8.146,0c0,6.228,0,8.602,0,8.602"/>
			</g>
		</g>
		<g>
			
				<line fill="none" stroke="#FFFFFF" stroke-width="2" stroke-miterlimit="10" x1="173.104" y1="-200.783" x2="181.333" y2="-200.783"/>
			
				<line fill="none" stroke="#FFFFFF" stroke-width="2" stroke-miterlimit="10" x1="177.218" y1="-188.249" x2="177.218" y2="-207.676"/>
		</g>
		<g>
			<g>
				<path fill="none" stroke="#FFFFFF" stroke-width="2" stroke-miterlimit="10" d="M165.938-206.423c0,0,0-0.812,0-1.939
					c0-1.586,2.145-2.07,3.016-1.065"/>
			</g>
			
				<line fill="none" stroke="#FFFFFF" stroke-width="2" stroke-miterlimit="10" x1="161.864" y1="-200.783" x2="170.012" y2="-200.783"/>
			
				<line fill="none" stroke="#FFFFFF" stroke-width="2" stroke-miterlimit="10" x1="165.938" y1="-188.245" x2="165.938" y2="-206.423"/>
		</g>
		<g>
			
				<line fill="none" stroke="#FFFFFF" stroke-width="2" stroke-miterlimit="10" x1="156.185" y1="-200.783" x2="156.185" y2="-188.249"/>
			<circle fill="#FFFFFF" stroke="#FFFFFF" stroke-width="2" stroke-miterlimit="10" cx="156.185" cy="-205.168" r="1.253"/>
		</g>
	</g>
	<g>
		<g>
			<polygon fill="#FFFFFF" points="-19.266,-205.177 -12.11,-200.226 -9.725,-208.596 			"/>
		</g>
		<g>
			<defs>
				<polygon id="SVGID_37_" points="-33.383,-198.062 -60.91,-179.684 -57.584,-207.53 -48.292,-219.906 -33.641,-223.979 
					-18.599,-220.483 -12.687,-214.379 -9.216,-208.461 				"/>
			</defs>
			<clipPath id="SVGID_38_">
				<use xlink:href="#SVGID_37_"  overflow="visible"/>
			</clipPath>
			<path clip-path="url(#SVGID_38_)" fill="#FFFFFF" d="M-33.389-174.235c-13.004,0-23.688-10.583-23.819-23.59
				c-0.13-13.134,10.451-23.928,23.587-24.06l0.238-0.001c13.006,0,23.692,10.582,23.82,23.589
				c0.063,6.363-2.355,12.369-6.81,16.913c-4.455,4.546-10.412,7.083-16.776,7.146L-33.389-174.235z M-33.382-215.955l-0.179,0.002
				c-9.866,0.099-17.813,8.204-17.714,18.07c0.098,9.768,8.122,17.716,17.887,17.716l0.182-0.001c4.78-0.048,9.254-1.954,12.6-5.367
				c3.345-3.413,5.162-7.924,5.114-12.704C-15.589-208.008-23.614-215.955-33.382-215.955z"/>
		</g>
		<g>
			<g>
				<polygon fill="#FFFFFF" points="-4.104,-194.215 -7.258,-200.096 -11.813,-195.216 				"/>
			</g>
			<g>
				<defs>
					<polygon id="SVGID_39_" points="-33.38,-198.06 -26.018,-225.162 -33.522,-226.882 -41.008,-228.6 -49.833,-225.24 
						-60.136,-218.546 -64.825,-196.875 -51.691,-170.032 -39.829,-166.614 -32.067,-166.614 -18.867,-170.132 -9.335,-177.76 
						-4.343,-185.896 -4.426,-194.344 					"/>
				</defs>
				<clipPath id="SVGID_40_">
					<use xlink:href="#SVGID_39_"  overflow="visible"/>
				</clipPath>
				<path clip-path="url(#SVGID_40_)" fill="#FFFFFF" d="M-33.387-170.127c-15.246,0-27.772-12.404-27.923-27.653
					c-0.074-7.46,2.762-14.502,7.984-19.83c5.224-5.328,12.209-8.303,19.67-8.377l0.284-0.001c15.245,0,27.77,12.405,27.922,27.655
					c0.074,7.459-2.762,14.501-7.985,19.828c-5.223,5.328-12.208,8.302-19.668,8.376L-33.387-170.127z M-33.373-221.54l-0.24,0.001
					c-6.273,0.062-12.146,2.563-16.537,7.042c-4.391,4.479-6.775,10.4-6.712,16.674c0.126,12.818,10.657,23.247,23.475,23.247
					l0.24-0.001c6.271-0.062,12.144-2.563,16.535-7.042c4.392-4.478,6.776-10.398,6.713-16.671
					C-10.027-211.109-20.557-221.54-33.373-221.54z"/>
			</g>
		</g>
		<g>
			<g>
				<polygon fill="#FFFFFF" points="-46.6,-162.241 -35.322,-165.595 -42.126,-175.194 				"/>
			</g>
			<g>
				<defs>
					<polygon id="SVGID_41_" points="-33.38,-198.06 1.53,-220.325 -1.172,-223.979 -7.978,-228.846 -24.019,-240.141 
						-33.776,-236.393 -45.305,-233.873 -53.502,-231.258 -60.584,-225.003 -67.646,-218.472 -70.803,-209.654 -71.858,-199.856 
						-70.629,-192.094 -67.3,-183.525 -58.774,-166.33 -47.203,-160.292 					"/>
				</defs>
				<clipPath id="SVGID_42_">
					<use xlink:href="#SVGID_41_"  overflow="visible"/>
				</clipPath>
				<path clip-path="url(#SVGID_42_)" fill="#FFFFFF" d="M-33.386-162.877c-19.206,0-34.986-15.626-35.176-34.834
					c-0.093-9.397,3.479-18.27,10.059-24.98c6.579-6.712,15.377-10.458,24.776-10.551l0.357-0.001
					c19.204,0,34.983,15.627,35.173,34.836c0.093,9.396-3.479,18.267-10.059,24.979c-6.579,6.71-15.378,10.458-24.775,10.551
					L-33.386-162.877z M-33.371-225.829l-0.284,0.001c-7.417,0.072-14.362,3.029-19.555,8.327c-5.193,5.297-8.012,12.3-7.938,19.718
					c0.15,15.159,12.604,27.492,27.762,27.492l0.281-0.002c7.417-0.073,14.362-3.03,19.555-8.327
					c5.193-5.296,8.012-12.298,7.938-19.715C-5.761-213.494-18.214-225.829-33.371-225.829z"/>
			</g>
		</g>
	</g>
</g>
<g id="ci_x5F_logoのコピー">
	<text transform="matrix(1 0 0 1 593.3975 67.3867)" fill="#202B47" font-family="'NotoSansJP-Regular'" font-size="11">マインド  シフト  システムズ</text>
	<g>
		<g>
			<path fill="#202B47" d="M679.028-50.05l6.949,0.901c-2.642,20.413-11.767,39.334-26.429,54.283
				c-2.779,2.835-5.704,5.474-8.759,7.911c0.254,0.132,0.492,0.291,0.691,0.498c0.132,0.137,0.244,0.291,0.346,0.453
				c0.731-0.805,1.83-1.29,2.863-1.29c0.815,0,1.548,0.297,2.066,0.837c0.582,0.605,0.877,1.464,0.877,2.551v2.639
				c1.848,0.207,5.182,0.924,7.061,1.218c-0.015-0.35-0.108-0.671-1.067-1.305c-1.351-0.896-2.131-1.367-2.139-1.372
				c-1.003-0.602-1.511-1.374-1.511-2.292c0-0.686,0.283-2.276,2.899-2.276c1.343,0,2.355,1.088,2.726,2.1l-1.289,0.474
				c-0.214-0.582-0.791-1.199-1.437-1.199c-1.525,0-1.525,0.632-1.525,0.902c0,0.15,0,0.606,0.845,1.115
				c0.034,0.02,0.81,0.489,2.189,1.401c1.533,1.016,1.671,1.768,1.685,2.512c0.002,0.119-0.546,0.071-1.377-0.06
				c0.001,0.036,0.003,0.072,0.003,0.109c0.002,0.107-0.056,0.448-0.344,0.739c-0.336,0.345-0.878,0.519-1.607,0.519
				c-0.675,0-1.679-0.639-1.885-1.199l-1.29,0.473c0.021,0.057,0.056,0.112,0.083,0.168c1.918,0.975,3.816,1.933,3.092,1.933
				c-1.193,0-2.604-0.901-3.092-1.933c-0.72-0.366-1.434-0.73-2.021-1.052v2.298h-1.375v-5.911c0-0.71-0.17-1.263-0.494-1.599
				c-0.33-0.343-0.767-0.416-1.075-0.416c-1.1,0-2.332,0.861-2.332,2.015v5.911h-1.375v-5.911c0-0.71-0.171-1.263-0.493-1.599
				c-0.316-0.328-0.728-0.407-1.033-0.413c-0.773,0.595-1.551,1.18-2.339,1.749c-0.015,0.087-0.035,0.172-0.035,0.263v5.911h-1.375
				v-5.183c-0.862,0.6-1.73,1.188-2.61,1.756l0.615,0.111c-0.058,0.318-0.144,0.63-0.254,0.927c-0.108,0.289-0.243,0.571-0.402,0.84
				c-0.164,0.274-0.346,0.521-0.542,0.743c-0.196,0.223-0.418,0.43-0.658,0.614c-0.242,0.186-0.5,0.345-0.771,0.472
				c-0.268,0.131-0.558,0.232-0.855,0.302c-0.297,0.068-0.607,0.104-0.92,0.104s-0.624-0.036-0.923-0.105
				c-0.294-0.067-0.583-0.17-0.857-0.301c-0.111-0.053-0.211-0.132-0.319-0.196c-13.575,7.44-28.858,11.468-44.773,11.627
				l-0.973,0.005c-32.865,0-62.011-16.903-79.162-42.463l18.845-12.582c-7.622-11.356-12.144-24.949-12.29-39.553
				c-0.214-21.455,8.952-40.851,23.662-54.304l-6.792-24.698l-17.385,47.19l-17.391-47.193l-13.336,48.485l-7.194-1.978
				l19.499-70.886l18.422,49.993l18.418-49.996l12.08,43.931c11.792-8.585,26.252-13.731,41.916-13.887l0.727-0.008
				c28.547,0,53.418,16.729,65.256,40.894l-7.962,2.853l29.045,20.096l9.681-33.972l-8.014,2.872
				c-11.837-25.917-34.794-45.783-62.652-53.41l4.195-15.448c27.236,7.45,50.467,24.929,65.396,48.199l25.345-16.165
				c-25.457-39.677-69.953-66.087-120.243-66.087l-1.451,0.004c-38.146,0.376-73.856,15.581-100.56,42.823
				c-26.705,27.239-41.202,63.248-40.825,101.39c0.6,60.532,39.352,112.285,93.133,132.407l-3.991,11.557l45.774-13.611
				l-14.643-20.656c7.278,1.481,14.801,2.261,22.495,2.261l1.151-0.008c30.277-0.302,58.627-12.371,79.827-33.996
				c17.446-17.796,28.315-40.31,31.455-64.598l6.42,0.834l-12.801-23.869L679.028-50.05z M639.918,21.248
				c0.199-0.045,0.391-0.112,0.571-0.201c0.188-0.088,0.365-0.195,0.529-0.322c0.168-0.129,0.326-0.276,0.466-0.437
				c0.142-0.158,0.273-0.338,0.392-0.536c0.107-0.18,0.198-0.376,0.275-0.576c-1.136,0.716-2.285,1.408-3.448,2.073
				C639.097,21.34,639.526,21.34,639.918,21.248z M638.697,21.248c-0.197-0.045-0.389-0.112-0.574-0.201
				c-0.183-0.088-0.36-0.195-0.522-0.32c-0.17-0.131-0.328-0.278-0.47-0.438c-0.141-0.158-0.271-0.338-0.389-0.534
				c-0.114-0.19-0.213-0.398-0.295-0.618c-0.084-0.224-0.148-0.456-0.19-0.69c-0.043-0.239-0.065-0.491-0.065-0.746
				c0-0.061,0.001-0.121,0.003-0.181l7.377,0.001l-0.138-0.804c-0.054-0.313-0.136-0.624-0.244-0.927
				c-0.107-0.297-0.238-0.579-0.388-0.839c-0.148-0.258-0.322-0.508-0.52-0.742c-0.192-0.226-0.406-0.432-0.639-0.618
				c-0.234-0.185-0.483-0.344-0.742-0.473c-0.266-0.133-0.547-0.234-0.833-0.304c-0.591-0.144-1.212-0.143-1.798-0.001
				c-0.289,0.07-0.57,0.172-0.835,0.305c-0.259,0.129-0.508,0.288-0.743,0.474c-0.227,0.181-0.441,0.388-0.64,0.62
				c-0.191,0.226-0.366,0.475-0.519,0.739c-0.15,0.265-0.281,0.548-0.388,0.841c-0.107,0.301-0.189,0.611-0.242,0.922
				c-0.057,0.317-0.085,0.65-0.085,0.986c0,0.339,0.03,0.672,0.088,0.99c0.056,0.314,0.142,0.625,0.254,0.928
				c0.113,0.298,0.248,0.581,0.405,0.845c0.162,0.27,0.344,0.517,0.538,0.736c0.199,0.225,0.42,0.432,0.662,0.618
				c0.14,0.107,0.295,0.185,0.446,0.273c0.5-0.273,0.997-0.558,1.493-0.841C638.701,21.248,638.699,21.248,638.697,21.248z
				 M636.725,15.634c0.11-0.191,0.237-0.371,0.373-0.532c0.14-0.162,0.291-0.309,0.448-0.435c0.159-0.127,0.328-0.233,0.502-0.321
				c0.172-0.086,0.354-0.152,0.542-0.197c0.38-0.091,0.771-0.092,1.155,0.001c0.188,0.045,0.37,0.11,0.541,0.196
				c0.175,0.088,0.345,0.196,0.502,0.32c0.161,0.129,0.312,0.275,0.446,0.432c0.143,0.169,0.269,0.349,0.375,0.535
				c0.092,0.16,0.174,0.333,0.246,0.513l-5.375-0.002C636.551,15.966,636.633,15.795,636.725,15.634z M641.341-16.955v-17.211h4.649
				v-2.985h-4.649v-8.791h-2.984v8.791h-4.645v2.985h4.645v17.211H641.341z M631.613,22.006V14.08h2.139v-1.374h-2.139v-4.05h-1.375
				v4.05h-2.14v1.374h2.14v7.926H631.613z M623.855,21.318c-0.674,0-1.678-0.639-1.885-1.199l-1.289,0.473
				c0.404,1.101,1.916,2.101,3.174,2.101c1.385,0,2.171-0.505,2.587-0.929c0.556-0.565,0.746-1.263,0.737-1.753
				c-0.012-0.744-0.152-1.496-1.686-2.512c-1.378-0.912-2.153-1.382-2.188-1.401c-0.845-0.509-0.845-0.965-0.845-1.115
				c0-0.271,0-0.902,1.524-0.902c0.647,0,1.223,0.617,1.436,1.199l1.29-0.474c-0.37-1.012-1.381-2.1-2.726-2.1
				c-2.616,0-2.899,1.591-2.899,2.276c0,0.92,0.51,1.691,1.511,2.291c0.009,0.006,0.787,0.477,2.139,1.373
				c1.058,0.699,1.064,1.018,1.07,1.413c0.002,0.107-0.056,0.45-0.343,0.742C625.125,21.146,624.585,21.318,623.855,21.318z
				 M649.413,14.08c0.013,0,0.029,0.003,0.042,0.003c0.446-0.344,0.893-0.686,1.333-1.037c-0.409-0.214-0.873-0.339-1.375-0.339
				c-0.805,0-1.65,0.296-2.331,0.807v-0.048h-1.375v2.629v0.729c0.472-0.327,0.943-0.655,1.409-0.991
				C647.288,14.814,648.399,14.08,649.413,14.08z M642.36,18.445c-0.043,0.237-0.108,0.47-0.19,0.69
				c-0.005,0.014-0.014,0.026-0.019,0.04c0.315-0.198,0.633-0.395,0.946-0.597L642.36,18.445z M549.06-91.396l7.193-1.978
				l-7.413-26.958c-2.202,1.603-4.316,3.317-6.321,5.151L549.06-91.396z M598.168,23.723c3.42,0,6.086-0.951,7.925-2.826
				c1.669-1.703,2.234-3.788,2.207-5.161l-0.002-0.077c-0.033-2.329-0.444-4.513-5.162-7.635c-4.39-2.908-6.858-4.403-6.965-4.468
				c-1.972-1.183-2.931-2.48-2.931-3.967c0-0.917,0-3.351,5.34-3.351c2.282,0,4.295,2.133,5.033,4.139l3.226-1.185
				c-1.132-3.078-4.198-6.391-8.258-6.391c-7.92,0-8.776,4.745-8.776,6.787c0,2.757,1.547,5.081,4.594,6.91
				c0.025,0.014,2.518,1.525,6.841,4.389c3.589,2.376,3.606,3.508,3.624,4.819l0.001,0.088c0.009,0.49-0.234,1.685-1.225,2.695
				c-1.168,1.193-3.009,1.798-5.472,1.798c-2.356,0-5.738-2.166-6.463-4.136l-3.225,1.186
				C589.709,20.68,594.326,23.723,598.168,23.723z M609.956-35.657h-2.982v18.702h2.982V-35.657z M611.607,30.899l7.751-17.225
				l-1.254-0.564l-3.295,7.324l-3.154-7.313l-1.261,0.543l3.651,8.468l-3.691,8.203L611.607,30.899z M612.718-92.384v-37.402h-2.983
				v20.16c-1.69-1.823-3.957-2.951-6.455-2.951c-5.205,0-9.438,4.864-9.438,10.842c0,5.979,4.234,10.846,9.438,10.846
				c2.498,0,4.764-1.13,6.455-2.954v1.46H612.718z M603.28-93.874c-3.559,0-6.454-3.527-6.454-7.861
				c0-4.333,2.896-7.858,6.454-7.858s6.455,3.525,6.455,7.858C609.734-97.401,606.838-93.874,603.28-93.874z M611.829-42.201
				c0-1.854-1.509-3.364-3.364-3.364c-1.853,0-3.362,1.51-3.362,3.364c0,1.854,1.509,3.363,3.362,3.363
				C610.32-38.838,611.829-40.348,611.829-42.201z M568.302-117.63c0-1.855-1.507-3.365-3.362-3.365c-1.853,0-3.36,1.51-3.36,3.365
				c0,1.854,1.507,3.362,3.36,3.362C566.795-114.269,568.302-115.776,568.302-117.63z M629.097-37.151h-4.586v-6.923v-2.895
				c0-0.136,0-0.556,0.61-0.785c0.473-0.174,1.034-0.101,1.27,0.175l2.256-1.957c-1.067-1.229-2.902-1.632-4.569-1.013
				c-1.574,0.588-2.552,1.96-2.552,3.58v2.895v6.923h-4.587v2.985h4.587v17.217h2.985v-17.217h4.586V-37.151z M557.828-20.678
				c-5.117,0-12.46-4.702-14.029-8.984l-7.006,2.567c2.664,7.264,12.688,13.875,21.036,13.875c7.433,0,13.228-2.066,17.219-6.146
				c3.623-3.701,4.847-8.224,4.784-11.203l-0.001-0.17c-0.072-5.059-0.968-9.797-11.213-16.577
				c-9.532-6.311-14.89-9.556-15.126-9.699c-4.279-2.563-6.361-5.382-6.361-8.613c0-1.991,0-7.276,11.595-7.276
				c4.957,0,9.329,4.629,10.929,8.986l7.003-2.569c-2.452-6.683-9.11-13.874-17.933-13.874c-17.198,0-19.055,10.301-19.055,14.733
				c0,5.992,3.36,11.042,9.974,15.007c0.053,0.031,5.467,3.312,14.856,9.529c7.794,5.155,7.829,7.617,7.872,10.462l0.002,0.198
				c0.022,1.061-0.504,3.647-2.657,5.846C567.18-21.995,563.18-20.678,557.828-20.678z M563.448-92.384h2.985v-18.702h-2.985
				V-92.384z M588.45-29.791c0-2.463,2.938-4.375,5.465-4.375c0.742,0,1.789,0.163,2.574,0.934c0.751,0.737,1.134,1.895,1.134,3.441
				v12.836h2.983v-12.836c0-2.96-1.102-4.663-2.027-5.57c-1.191-1.169-2.804-1.787-4.665-1.787c-1.895,0-3.888,0.688-5.465,1.863
				v-19.072h-2.984v24.566v12.836h2.984V-29.791z M585.693-108.661c0.751,0.737,1.132,1.896,1.132,3.443v12.834h2.985v-12.834
				c0-2.96-1.102-4.665-2.025-5.572c-1.191-1.167-2.805-1.787-4.665-1.787c-1.895,0-3.888,0.687-5.464,1.863v-0.371h-2.985v5.868
				v12.834h2.985v-12.834c0-2.466,2.938-4.375,5.464-4.375C583.86-109.593,584.908-109.431,585.693-108.661z"/>
		</g>
	</g>
	<g>
		<g>
			<path fill="#FFFFFF" d="M194.918,229.248c0.199-0.045,0.391-0.112,0.571-0.201c0.188-0.088,0.365-0.195,0.529-0.322
				c0.168-0.129,0.326-0.276,0.466-0.437c0.142-0.158,0.273-0.338,0.392-0.536c0.107-0.18,0.198-0.376,0.275-0.576
				c-1.136,0.716-2.285,1.408-3.448,2.073C194.097,229.34,194.526,229.34,194.918,229.248z M234.028,157.95l6.949,0.901
				c-2.642,20.413-11.767,39.334-26.429,54.283c-2.779,2.835-5.704,5.474-8.759,7.911c0.254,0.132,0.492,0.291,0.691,0.498
				c0.132,0.137,0.244,0.291,0.346,0.453c0.731-0.805,1.83-1.29,2.863-1.29c0.815,0,1.548,0.297,2.066,0.837
				c0.582,0.605,0.877,1.464,0.877,2.551v2.639c1.848,0.207,5.182,0.924,7.061,1.218c-0.015-0.35-0.108-0.671-1.067-1.305
				c-1.351-0.896-2.131-1.367-2.139-1.372c-1.003-0.602-1.511-1.374-1.511-2.292c0-0.686,0.283-2.276,2.899-2.276
				c1.343,0,2.355,1.088,2.726,2.1l-1.289,0.474c-0.214-0.582-0.791-1.199-1.437-1.199c-1.525,0-1.525,0.632-1.525,0.902
				c0,0.15,0,0.606,0.845,1.115c0.034,0.02,0.81,0.489,2.189,1.401c1.533,1.016,1.671,1.768,1.685,2.512
				c0.002,0.119-0.546,0.071-1.377-0.06c0.001,0.036,0.003,0.072,0.003,0.109c0.002,0.107-0.056,0.448-0.344,0.739
				c-0.336,0.345-0.878,0.519-1.607,0.519c-0.675,0-1.679-0.639-1.885-1.199l-1.29,0.473c0.021,0.057,0.056,0.112,0.083,0.168
				c1.918,0.975,3.816,1.933,3.092,1.933c-1.193,0-2.604-0.901-3.092-1.933c-0.72-0.366-1.434-0.73-2.021-1.052v2.298h-1.375v-5.911
				c0-0.71-0.17-1.263-0.494-1.599c-0.33-0.343-0.767-0.416-1.075-0.416c-1.1,0-2.332,0.861-2.332,2.015v5.911h-1.375v-5.911
				c0-0.71-0.171-1.263-0.493-1.599c-0.316-0.328-0.728-0.407-1.033-0.413c-0.773,0.595-1.551,1.18-2.339,1.749
				c-0.015,0.087-0.035,0.172-0.035,0.263v5.911h-1.375v-5.183c-0.862,0.6-1.73,1.188-2.61,1.756l0.615,0.111
				c-0.058,0.318-0.144,0.63-0.254,0.927c-0.108,0.289-0.243,0.571-0.402,0.84c-0.164,0.274-0.346,0.521-0.542,0.743
				c-0.196,0.223-0.418,0.43-0.658,0.614c-0.242,0.186-0.5,0.345-0.771,0.472c-0.268,0.131-0.558,0.232-0.855,0.302
				c-0.297,0.068-0.607,0.104-0.92,0.104s-0.624-0.036-0.923-0.105c-0.294-0.067-0.583-0.17-0.857-0.301
				c-0.111-0.053-0.211-0.132-0.319-0.196c-13.575,7.44-28.858,11.468-44.773,11.627l-0.973,0.005
				c-32.865,0-62.011-16.903-79.162-42.463l18.845-12.582c-7.622-11.356-12.144-24.949-12.29-39.553
				c-0.214-21.455,8.952-40.851,23.661-54.304l-6.792-24.697l-17.385,47.189L55.952,68.119l-13.336,48.485l-7.194-1.978L54.92,43.74
				l18.422,49.993L91.76,43.738l12.08,43.931c11.792-8.585,26.252-13.731,41.916-13.888l0.727-0.008
				c28.547,0,53.418,16.729,65.256,40.895l-7.962,2.853l29.045,20.096l9.681-33.972l-8.014,2.871
				c-11.837-25.916-34.794-45.782-62.652-53.41l4.195-15.447c27.236,7.449,50.467,24.93,65.396,48.199l25.345-16.165
				C241.317,30.016,196.821,3.605,146.531,3.605l-1.451,0.004C106.935,3.986,71.224,19.19,44.521,46.433
				C17.816,73.672,3.319,109.681,3.696,147.822c0.6,60.532,39.352,112.285,93.133,132.407l-3.991,11.557l45.774-13.611
				l-14.643-20.656c7.278,1.481,14.801,2.261,22.495,2.261l1.151-0.008c30.277-0.302,58.627-12.371,79.827-33.996
				c17.446-17.796,28.315-40.31,31.455-64.598l6.42,0.834l-12.801-23.869L234.028,157.95z M196.341,191.045v-17.211h4.649v-2.985
				h-4.649v-8.791h-2.984v8.791h-4.645v2.985h4.645v17.211H196.341z M186.613,230.006v-7.926h2.139v-1.374h-2.139v-4.05h-1.375v4.05
				h-2.14v1.374h2.14v7.926H186.613z M193.697,229.248c-0.197-0.045-0.389-0.112-0.574-0.201c-0.183-0.088-0.36-0.195-0.522-0.32
				c-0.17-0.131-0.328-0.278-0.47-0.438c-0.141-0.158-0.271-0.338-0.389-0.534c-0.114-0.19-0.213-0.398-0.295-0.618
				c-0.084-0.224-0.148-0.456-0.19-0.69c-0.043-0.239-0.065-0.491-0.065-0.746c0-0.061,0.001-0.121,0.003-0.181l7.377,0.001
				l-0.138-0.804c-0.054-0.313-0.136-0.624-0.244-0.927c-0.107-0.297-0.238-0.579-0.388-0.839c-0.148-0.258-0.322-0.508-0.52-0.742
				c-0.192-0.226-0.406-0.432-0.639-0.618c-0.234-0.185-0.483-0.344-0.742-0.473c-0.266-0.133-0.547-0.234-0.833-0.304
				c-0.591-0.144-1.212-0.143-1.798-0.001c-0.289,0.07-0.57,0.172-0.835,0.305c-0.259,0.129-0.508,0.288-0.743,0.474
				c-0.227,0.181-0.441,0.388-0.64,0.62c-0.191,0.226-0.366,0.475-0.519,0.739c-0.15,0.265-0.281,0.548-0.388,0.841
				c-0.107,0.301-0.189,0.611-0.242,0.922c-0.057,0.317-0.085,0.65-0.085,0.986c0,0.339,0.03,0.672,0.088,0.99
				c0.056,0.314,0.142,0.625,0.254,0.928c0.113,0.298,0.248,0.581,0.405,0.845c0.162,0.27,0.344,0.517,0.538,0.736
				c0.199,0.225,0.42,0.432,0.662,0.618c0.14,0.107,0.295,0.185,0.446,0.273c0.5-0.273,0.997-0.558,1.493-0.841
				C193.701,229.248,193.699,229.248,193.697,229.248z M191.725,223.634c0.11-0.191,0.237-0.371,0.373-0.532
				c0.14-0.162,0.291-0.309,0.448-0.435c0.159-0.127,0.328-0.233,0.502-0.321c0.172-0.086,0.354-0.152,0.542-0.197
				c0.38-0.091,0.771-0.092,1.155,0.001c0.188,0.045,0.37,0.11,0.541,0.196c0.175,0.088,0.345,0.196,0.502,0.32
				c0.161,0.129,0.312,0.275,0.446,0.432c0.143,0.169,0.269,0.349,0.375,0.535c0.092,0.16,0.174,0.333,0.246,0.513l-5.375-0.002
				C191.551,223.966,191.633,223.795,191.725,223.634z M197.36,226.445c-0.043,0.237-0.108,0.47-0.19,0.69
				c-0.005,0.014-0.014,0.026-0.019,0.04c0.315-0.198,0.633-0.395,0.946-0.597L197.36,226.445z M178.855,229.318
				c-0.674,0-1.678-0.639-1.885-1.199l-1.289,0.473c0.404,1.101,1.916,2.101,3.174,2.101c1.385,0,2.171-0.505,2.587-0.929
				c0.556-0.565,0.746-1.263,0.737-1.753c-0.012-0.744-0.152-1.496-1.686-2.512c-1.378-0.912-2.153-1.382-2.188-1.401
				c-0.845-0.509-0.845-0.965-0.845-1.115c0-0.271,0-0.902,1.524-0.902c0.647,0,1.223,0.617,1.436,1.199l1.29-0.474
				c-0.37-1.012-1.381-2.1-2.726-2.1c-2.616,0-2.899,1.591-2.899,2.276c0,0.92,0.51,1.691,1.511,2.291
				c0.009,0.006,0.787,0.477,2.139,1.373c1.058,0.699,1.064,1.018,1.07,1.413c0.002,0.107-0.056,0.45-0.343,0.742
				C180.125,229.146,179.585,229.318,178.855,229.318z M204.413,222.08c0.013,0,0.029,0.003,0.042,0.003
				c0.446-0.344,0.893-0.686,1.333-1.037c-0.409-0.214-0.873-0.339-1.375-0.339c-0.805,0-1.65,0.296-2.331,0.807v-0.048h-1.375
				v2.629v0.729c0.472-0.327,0.943-0.655,1.409-0.991C202.288,222.814,203.399,222.08,204.413,222.08z M104.06,116.604l7.193-1.978
				l-7.413-26.958c-2.202,1.603-4.316,3.317-6.321,5.151L104.06,116.604z M153.168,231.723c3.42,0,6.086-0.951,7.925-2.826
				c1.669-1.703,2.234-3.788,2.207-5.161l-0.002-0.077c-0.033-2.329-0.444-4.513-5.162-7.635c-4.39-2.908-6.858-4.403-6.965-4.468
				c-1.972-1.183-2.931-2.48-2.931-3.967c0-0.917,0-3.351,5.34-3.351c2.282,0,4.295,2.133,5.033,4.139l3.226-1.185
				c-1.132-3.078-4.198-6.391-8.258-6.391c-7.92,0-8.776,4.745-8.776,6.787c0,2.757,1.547,5.081,4.594,6.91
				c0.025,0.014,2.518,1.525,6.841,4.389c3.589,2.376,3.606,3.508,3.624,4.819l0.001,0.088c0.009,0.49-0.234,1.685-1.225,2.695
				c-1.168,1.193-3.009,1.798-5.472,1.798c-2.356,0-5.738-2.166-6.463-4.136l-3.225,1.186
				C144.709,228.68,149.326,231.723,153.168,231.723z M184.097,170.849h-4.586v-6.923v-2.895c0-0.136,0-0.556,0.61-0.785
				c0.473-0.174,1.034-0.101,1.27,0.175l2.256-1.957c-1.067-1.229-2.902-1.632-4.569-1.013c-1.574,0.588-2.552,1.96-2.552,3.58
				v2.895v6.923h-4.587v2.985h4.587v17.217h2.985v-17.217h4.586V170.849z M164.956,172.343h-2.982v18.702h2.982V172.343z
				 M167.718,115.616V78.214h-2.983v20.16c-1.69-1.823-3.957-2.951-6.455-2.951c-5.205,0-9.438,4.864-9.438,10.842
				c0,5.979,4.234,10.846,9.438,10.846c2.498,0,4.764-1.13,6.455-2.954v1.46H167.718z M158.28,114.126
				c-3.559,0-6.454-3.527-6.454-7.861c0-4.333,2.896-7.858,6.454-7.858s6.455,3.525,6.455,7.858
				C164.734,110.599,161.838,114.126,158.28,114.126z M166.829,165.799c0-1.854-1.509-3.364-3.364-3.364
				c-1.853,0-3.362,1.51-3.362,3.364c0,1.854,1.509,3.363,3.362,3.363C165.32,169.162,166.829,167.652,166.829,165.799z
				 M166.607,238.899l7.751-17.225l-1.254-0.564l-3.295,7.324l-3.154-7.313l-1.261,0.543l3.651,8.468l-3.691,8.203L166.607,238.899z
				 M143.45,178.209c0-2.463,2.938-4.375,5.465-4.375c0.742,0,1.789,0.163,2.574,0.934c0.751,0.737,1.134,1.895,1.134,3.441v12.836
				h2.983v-12.836c0-2.96-1.102-4.663-2.027-5.57c-1.191-1.169-2.804-1.787-4.665-1.787c-1.895,0-3.888,0.688-5.465,1.863v-19.072
				h-2.984v24.566v12.836h2.984V178.209z M112.828,187.322c-5.117,0-12.46-4.702-14.029-8.984l-7.006,2.567
				c2.664,7.264,12.688,13.875,21.036,13.875c7.433,0,13.228-2.066,17.219-6.146c3.623-3.701,4.847-8.224,4.784-11.203l-0.001-0.17
				c-0.072-5.059-0.968-9.797-11.213-16.577c-9.532-6.311-14.89-9.556-15.126-9.699c-4.279-2.563-6.361-5.382-6.361-8.613
				c0-1.991,0-7.276,11.595-7.276c4.957,0,9.329,4.629,10.929,8.986l7.003-2.569c-2.452-6.683-9.11-13.874-17.933-13.874
				c-17.198,0-19.055,10.301-19.055,14.733c0,5.992,3.36,11.042,9.974,15.007c0.053,0.031,5.467,3.312,14.856,9.529
				c7.794,5.155,7.829,7.617,7.872,10.462l0.002,0.198c0.022,1.061-0.504,3.647-2.657,5.846
				C122.18,186.005,118.18,187.322,112.828,187.322z M118.448,115.616h2.985V96.914h-2.985V115.616z M123.302,90.369
				c0-1.854-1.507-3.364-3.362-3.364c-1.853,0-3.36,1.51-3.36,3.364c0,1.855,1.507,3.362,3.36,3.362
				C121.795,93.731,123.302,92.225,123.302,90.369z M140.693,99.34c0.751,0.736,1.132,1.896,1.132,3.442v12.834h2.985v-12.834
				c0-2.96-1.102-4.665-2.025-5.572c-1.191-1.167-2.805-1.787-4.665-1.787c-1.895,0-3.888,0.687-5.464,1.862v-0.371h-2.985v5.868
				v12.834h2.985v-12.834c0-2.466,2.938-4.376,5.464-4.376C138.86,98.406,139.908,98.569,140.693,99.34z"/>
		</g>
	</g>
</g>
<g id="_irasuto">
	<linearGradient id="SVGID_43_" gradientUnits="userSpaceOnUse" x1="829.3521" y1="-245.1084" x2="942.397" y2="-245.1084">
		<stop  offset="0" style="stop-color:#808080"/>
		<stop  offset="1" style="stop-color:#FFFFFF"/>
	</linearGradient>
	<path fill="url(#SVGID_43_)" d="M866.768-162.334h75.629c-6.861-21.344-20.591-51.604-18.742-70.827
		c1.322-13.758,12.965-21.432,15.61-45.51c2.646-24.078-13.494-38.896-24.871-43.658c-46.246-19.359-70.648,17.564-75.516,24.36
		c-4.865,6.796-5.818,19.44-3.492,26.357c0.688,2.044,2.15,6.83,2.128,8.528c-0.12,9.005-7.638,15.955-8.118,20.337
		c-0.365,3.342,1.547,4.959,5.477,5.656c3.722,0.661,0.606,5.46,0.3,6.304c-0.721,1.981,2.041,3.482,4.743,4.263
		c-4.322,7.684,2.342,4.622,3.241,8.464c0.245,1.045-2.208,7.409,3.302,10.866c3.469,2.177,12.355,1.217,23.219-2.154
		c7.674-2.381,12.414,32.239,9.656,34.669C878.022-173.522,872.336-168.252,866.768-162.334z"/>
</g>
<g id="face_x5F_left">
	<g>
		<path fill="none" stroke="#000000" stroke-miterlimit="10" d="M299.778-473.287c-4.04,16.932-12.464,24.264-13.563,36.047
			c-1.799,19.275,11.561,34.505,18.237,55.906"/>
		<path fill="none" stroke="#000000" stroke-miterlimit="10" d="M230.86-366.221c3.254-2.923,7.689-6.715,13.379-14.544
			c7.8-10.733-3.082-34.984-10.548-32.597c-10.571,3.381-19.217,4.344-22.593,2.161c-5.361-3.466-2.976-9.847-3.213-10.896
			c-0.876-3.853-7.36-0.783-3.154-8.487c-2.629-0.783-5.316-2.288-4.615-4.274c0.298-0.846,3.33-5.659-0.292-6.32
			c-3.824-0.699-5.685-2.321-5.329-5.672c0.467-4.394,7.782-11.363,7.899-20.393c0.022-1.702-1.402-6.501-2.07-8.551
			c-2.263-6.936-1.336-19.614,3.397-26.429c2.012-2.895,7.454-11.242,16.499-18.397"/>
	</g>
</g>
<g id="face_x5F_right_1_">
	
		<linearGradient id="SVGID_44_" gradientUnits="userSpaceOnUse" x1="194.4521" y1="-449.2207" x2="304.4521" y2="-449.2207" gradientTransform="matrix(-1 0 0 1 498.9043 0)">
		<stop  offset="0" style="stop-color:#FFFFFF"/>
		<stop  offset="1" style="stop-color:#808080"/>
	</linearGradient>
	<path fill="url(#SVGID_44_)" d="M230.86-366.221h73.592c-6.676-21.401-20.036-51.745-18.237-71.02
		c1.288-13.796,12.616-21.49,15.191-45.634c2.575-24.143-13.132-39.001-24.203-43.776c-45-19.412-68.746,17.612-73.482,24.427
		c-4.734,6.815-5.661,19.494-3.397,26.429c0.668,2.05,2.093,6.849,2.07,8.551c-0.117,9.03-7.432,15.999-7.899,20.393
		c-0.356,3.351,1.505,4.973,5.329,5.672c3.622,0.662,0.59,5.475,0.292,6.32c-0.701,1.986,1.986,3.492,4.615,4.274
		c-4.206,7.704,2.278,4.634,3.154,8.487c0.237,1.048-2.148,7.429,3.213,10.896c3.375,2.183,12.022,1.22,22.593-2.161
		c7.466-2.387,12.081,32.328,9.396,34.764C241.811-377.438,236.278-372.154,230.86-366.221z"/>
</g>
</svg>
